<svg width="42" height="223" viewBox="0 0 42 223" fill="none" xmlns="http://www.w3.org/2000/svg">
<g filter="url(#filter0_i_3_20)">
<path d="M1 0.576L38.824 0.576V14.976C38.824 18.0053 38.12 20.1813 36.712 21.504C35.304 22.8693 33.4693 23.552 31.208 23.552L27.496 23.552C24.9787 23.552 22.9733 22.8907 21.48 21.568C20.1147 23.4453 17.7893 24.384 14.504 24.384H10.024C6.61067 24.384 4.24267 23.5093 2.92 21.76C1.64 20.0107 1 17.5787 1 14.464V0.576ZM2.152 1.664V14.464C2.152 17.28 2.728 19.4347 3.88 20.928C5.032 22.464 7.08 23.232 10.024 23.232H14.504C18.2587 23.232 20.52 21.952 21.288 19.392C21.8853 20.4587 22.7173 21.2267 23.784 21.696C24.8933 22.1653 26.1307 22.4 27.496 22.4L31.208 22.4C33.128 22.4 34.6853 21.824 35.88 20.672C37.0747 19.52 37.672 17.6213 37.672 14.976V1.664L2.152 1.664ZM2.728 2.176L37.096 2.176V14.976C37.096 17.408 36.5413 19.1573 35.432 20.224C34.3653 21.3333 32.9573 21.888 31.208 21.888L27.496 21.888C25.8747 21.888 24.4667 21.504 23.272 20.736C22.12 20.0107 21.4373 18.7733 21.224 17.024H21.096C21.096 18.6027 20.5627 19.9467 19.496 21.056C18.4293 22.1653 16.7653 22.72 14.504 22.72H10.024C7.25067 22.72 5.33067 21.9733 4.264 20.48C3.24 19.0293 2.728 17.024 2.728 14.464V2.176ZM22.952 11.328V12.032C22.952 12.4587 23.4 12.7573 24.296 12.928C24.7653 13.0133 25.256 13.0773 25.768 13.12C26.3227 13.1627 26.92 13.184 27.56 13.184C28.2427 13.184 28.8613 13.1627 29.416 13.12C29.9707 13.12 30.4613 13.0987 30.888 13.056C31.784 13.0133 32.232 12.7147 32.232 12.16V11.328H22.952ZM23.528 11.904H31.592V12.16C31.592 12.3733 31.208 12.5013 30.44 12.544C30.0133 12.5867 29.5653 12.608 29.096 12.608C28.6267 12.608 28.1147 12.608 27.56 12.608C27.0053 12.608 26.4933 12.5867 26.024 12.544C25.5547 12.544 25.128 12.5227 24.744 12.48C23.9333 12.4373 23.528 12.288 23.528 12.032V11.904ZM7.464 11.328V12.16C7.464 12.544 7.93333 12.8213 8.872 12.992C9.85333 13.12 11.0053 13.184 12.328 13.184C13.0107 13.184 13.6293 13.1627 14.184 13.12C14.7813 13.12 15.3147 13.0987 15.784 13.056C16.7227 13.0133 17.192 12.7147 17.192 12.16V11.328L7.464 11.328ZM8.04 11.904L16.616 11.904V12.16C16.616 12.3733 16.2107 12.5013 15.4 12.544C14.9733 12.5867 14.504 12.608 13.992 12.608C13.48 12.608 12.9253 12.608 12.328 12.608C11.7307 12.608 11.176 12.608 10.664 12.608C10.1947 12.608 9.74667 12.5867 9.32 12.544C8.46667 12.4587 8.04 12.3307 8.04 12.16V11.904ZM0.296 61.62C0.296 59.06 0.594667 56.9693 1.192 55.348C1.832 53.7267 3.00533 52.5107 4.712 51.7C6.41867 50.932 8.936 50.548 12.264 50.548H24.104C27.56 50.548 29.9493 51.508 31.272 53.428C32.5947 55.348 33.256 58.0787 33.256 61.62C33.256 65.1613 32.5947 67.892 31.272 69.812C29.9493 71.732 27.56 72.692 24.104 72.692H12.264C8.936 72.692 6.41867 72.2867 4.712 71.476C3.00533 70.6653 1.832 69.4493 1.192 67.828C0.594667 66.2067 0.296 64.1373 0.296 61.62ZM1.448 61.62C1.448 63.924 1.72533 65.8013 2.28 67.252C2.83467 68.7453 3.88 69.8333 5.416 70.516C6.99467 71.2413 9.27733 71.604 12.264 71.604H24.104C27.176 71.604 29.2667 70.7293 30.376 68.98C31.528 67.2733 32.104 64.82 32.104 61.62C32.104 58.42 31.528 55.9453 30.376 54.196C29.2667 52.4893 27.176 51.636 24.104 51.636H12.264C9.27733 51.636 6.99467 51.9773 5.416 52.66C3.88 53.3853 2.83467 54.4947 2.28 55.988C1.72533 57.4813 1.448 59.3587 1.448 61.62ZM2.024 61.62C2.024 59.444 2.28 57.652 2.792 56.244C3.34667 54.836 4.34933 53.7907 5.8 53.108C7.29333 52.468 9.448 52.148 12.264 52.148H24.104C26.9627 52.148 28.904 52.9587 29.928 54.58C30.9947 56.2013 31.528 58.548 31.528 61.62C31.528 64.6493 30.9947 66.9747 29.928 68.596C28.904 70.2173 26.9627 71.028 24.104 71.028H12.264C9.448 71.028 7.29333 70.6867 5.8 70.004C4.34933 69.364 3.34667 68.34 2.792 66.932C2.28 65.5667 2.024 63.796 2.024 61.62ZM6.632 61.62C6.632 62.0467 6.80267 62.3027 7.144 62.388C7.528 62.4733 7.86933 62.516 8.168 62.516H25.448C26.0453 62.516 26.4507 62.452 26.664 62.324C26.8773 62.196 26.984 61.9613 26.984 61.62C26.984 61.3213 26.8773 61.0867 26.664 60.916C26.4933 60.7453 26.088 60.66 25.448 60.66H8.168C7.74133 60.66 7.37867 60.7027 7.08 60.788C6.78133 60.916 6.632 61.1933 6.632 61.62ZM7.208 61.62C7.208 61.364 7.528 61.236 8.168 61.236H25.448C26.088 61.236 26.408 61.364 26.408 61.62C26.408 61.876 26.088 62.004 25.448 62.004H8.168C7.528 62.004 7.208 61.876 7.208 61.62ZM0.296 110.282C0.296 107.722 0.594667 105.632 1.192 104.01C1.832 102.389 3.00533 101.173 4.712 100.362C6.41867 99.5945 8.936 99.2105 12.264 99.2105H24.104C27.56 99.2105 29.9493 100.17 31.272 102.09C32.5947 104.01 33.256 106.741 33.256 110.282C33.256 113.824 32.5947 116.554 31.272 118.474C29.9493 120.394 27.56 121.354 24.104 121.354H12.264C8.936 121.354 6.41867 120.949 4.712 120.138C3.00533 119.328 1.832 118.112 1.192 116.49C0.594667 114.869 0.296 112.8 0.296 110.282ZM1.448 110.282C1.448 112.586 1.72533 114.464 2.28 115.914C2.83467 117.408 3.88 118.496 5.416 119.178C6.99467 119.904 9.27733 120.266 12.264 120.266H24.104C27.176 120.266 29.2667 119.392 30.376 117.642C31.528 115.936 32.104 113.482 32.104 110.282C32.104 107.082 31.528 104.608 30.376 102.858C29.2667 101.152 27.176 100.298 24.104 100.298H12.264C9.27733 100.298 6.99467 100.64 5.416 101.322C3.88 102.048 2.83467 103.157 2.28 104.65C1.72533 106.144 1.448 108.021 1.448 110.282ZM2.024 110.282C2.024 108.106 2.28 106.314 2.792 104.906C3.34667 103.498 4.34933 102.453 5.8 101.77C7.29333 101.13 9.448 100.81 12.264 100.81H24.104C26.9627 100.81 28.904 101.621 29.928 103.242C30.9947 104.864 31.528 107.21 31.528 110.282C31.528 113.312 30.9947 115.637 29.928 117.258C28.904 118.88 26.9627 119.69 24.104 119.69H12.264C9.448 119.69 7.29333 119.349 5.8 118.666C4.34933 118.026 3.34667 117.002 2.792 115.594C2.28 114.229 2.024 112.458 2.024 110.282ZM6.632 110.282C6.632 110.709 6.80267 110.965 7.144 111.05C7.528 111.136 7.86933 111.178 8.168 111.178H25.448C26.0453 111.178 26.4507 111.114 26.664 110.986C26.8773 110.858 26.984 110.624 26.984 110.282C26.984 109.984 26.8773 109.749 26.664 109.578C26.4933 109.408 26.088 109.322 25.448 109.322H8.168C7.74133 109.322 7.37867 109.365 7.08 109.45C6.78133 109.578 6.632 109.856 6.632 110.282ZM7.208 110.282C7.208 110.026 7.528 109.898 8.168 109.898H25.448C26.088 109.898 26.408 110.026 26.408 110.282C26.408 110.538 26.088 110.666 25.448 110.666H8.168C7.528 110.666 7.208 110.538 7.208 110.282ZM1 148.001H41.32V159.969H29.224L33.448 161.505V173.729L19.176 168.161L1 173.345V160.481L2.92 159.969H1V148.001ZM2.152 149.089V158.817H13.608L2.152 161.249V171.809L19.304 167.009L32.232 172.065V162.273L22.76 158.817H40.168V149.089H2.152ZM2.728 149.665H39.592V158.305H19.624L31.656 162.657V171.233L19.304 166.369L2.728 171.041V161.697L19.24 158.305H2.728V149.665ZM0.168 211.048C0.168 206.781 1.02133 203.816 2.728 202.152C4.47733 200.531 7.22933 199.72 10.984 199.72H14.632V204.2C15.3147 203.176 16.2107 202.28 17.32 201.512C18.4293 200.787 19.9653 200.424 21.928 200.424H23.528C27.0267 200.424 29.544 201.277 31.08 202.984C32.616 204.691 33.384 207.613 33.384 211.752C33.384 215.933 32.552 218.792 30.888 220.328C29.2667 221.864 26.6213 222.632 22.952 222.632H19.432V218.792C18.792 219.901 17.9387 220.819 16.872 221.544C15.8053 222.269 14.3333 222.632 12.456 222.632H10.408C6.78133 222.632 4.15733 221.757 2.536 220.008C0.957333 218.301 0.168 215.315 0.168 211.048ZM1.32 211.048C1.32 214.845 2.024 217.533 3.432 219.112C4.88267 220.733 7.208 221.544 10.408 221.544H12.456C14.4613 221.544 16.0187 221.011 17.128 219.944C18.28 218.877 19.0907 217.533 19.56 215.912L19.88 214.824C19.9653 214.483 20.0507 214.141 20.136 213.8C20.264 213.501 20.4133 213.224 20.584 212.968V221.544H22.952C26.2373 221.544 28.6053 220.84 30.056 219.432C31.5493 218.024 32.296 215.464 32.296 211.752C32.296 207.997 31.6133 205.352 30.248 203.816C28.8827 202.28 26.6427 201.512 23.528 201.512H21.928C19.7947 201.512 18.1307 202.109 16.936 203.304C15.784 204.541 14.9307 205.949 14.376 207.528C14.2907 207.741 14.1413 208.083 13.928 208.552C13.7147 209.021 13.5653 209.341 13.48 209.512V200.808H10.984C7.61333 200.808 5.16 201.533 3.624 202.984C2.088 204.477 1.32 207.165 1.32 211.048ZM1.896 211.048C1.896 207.379 2.62133 204.84 4.072 203.432C5.56533 202.067 7.86933 201.384 10.984 201.384H12.904V209.96H9C8.18933 209.96 7.592 210.024 7.208 210.152C6.824 210.237 6.632 210.493 6.632 210.92C6.632 211.261 6.78133 211.496 7.08 211.624C7.37867 211.752 7.74133 211.816 8.168 211.816H10.792C12.1573 211.816 13.0747 211.368 13.544 210.472C14.056 209.619 14.568 208.552 15.08 207.272C15.6773 205.907 16.4667 204.691 17.448 203.624C18.4293 202.6 19.9227 202.088 21.928 202.088H23.528C26.4293 202.088 28.52 202.813 29.8 204.264C31.08 205.757 31.72 208.253 31.72 211.752C31.72 215.251 31.016 217.661 29.608 218.984C28.2427 220.307 26.024 220.968 22.952 220.968H21.16V212.712H24.744C25.0853 212.712 25.4053 212.691 25.704 212.648C26.0027 212.648 26.2373 212.627 26.408 212.584C26.792 212.456 26.984 212.2 26.984 211.816C26.984 211.432 26.8347 211.176 26.536 211.048C26.28 210.92 25.9387 210.856 25.512 210.856H22.824C21.9707 210.856 21.3093 211.091 20.84 211.56C20.4133 212.029 20.072 212.627 19.816 213.352C19.56 214.12 19.2827 214.909 18.984 215.72C18.4293 217.171 17.6827 218.408 16.744 219.432C15.8053 220.456 14.376 220.968 12.456 220.968H10.408C7.42133 220.968 5.24533 220.221 3.88 218.728C2.55733 217.235 1.896 214.675 1.896 211.048ZM21.096 212.2C21.48 211.688 22.056 211.432 22.824 211.432H25.512C25.768 211.432 25.9813 211.432 26.152 211.432C26.3227 211.475 26.408 211.603 26.408 211.816C26.408 212.072 25.8533 212.2 24.744 212.2H21.096ZM7.208 210.92C7.208 210.664 7.80533 210.536 9 210.536H12.904C12.392 211.048 11.688 211.304 10.792 211.304H8.168C7.528 211.304 7.208 211.176 7.208 210.92Z" fill="#D2CAF3"/>
</g>
<defs>
<filter id="filter0_i_3_20" x="0.167999" y="0.575996" width="41.152" height="226.056" filterUnits="userSpaceOnUse" color-interpolation-filters="sRGB">
<feFlood flood-opacity="0" result="BackgroundImageFix"/>
<feBlend mode="normal" in="SourceGraphic" in2="BackgroundImageFix" result="shape"/>
<feColorMatrix in="SourceAlpha" type="matrix" values="0 0 0 0 0 0 0 0 0 0 0 0 0 0 0 0 0 0 127 0" result="hardAlpha"/>
<feOffset dy="4"/>
<feGaussianBlur stdDeviation="2"/>
<feComposite in2="hardAlpha" operator="arithmetic" k2="-1" k3="1"/>
<feColorMatrix type="matrix" values="0 0 0 0 0 0 0 0 0 0 0 0 0 0 0 0 0 0 0.25 0"/>
<feBlend mode="normal" in2="shape" result="effect1_innerShadow_3_20"/>
</filter>
</defs>
</svg>
