<svg width="53" height="30" viewBox="0 0 53 30" fill="none" xmlns="http://www.w3.org/2000/svg">
<g clip-path="url(#clip0_8_9)">
<path d="M1.18 15V3.18H5.68C6.61333 3.18 7.28667 3.4 7.7 3.84C8.11333 4.28 8.32 4.85333 8.32 5.56V7.34C8.32 7.98 8.24667 8.57333 8.1 9.12C7.95333 9.66667 7.69333 10.1067 7.32 10.44C6.96 10.7733 6.46 10.94 5.82 10.94H5.06V15H1.18ZM1.54 14.64H4.72V10.56H5.82C6.38 10.56 6.81333 10.4133 7.12 10.12C7.44 9.82667 7.66 9.44 7.78 8.96C7.91333 8.46667 7.98 7.92667 7.98 7.34V5.56C7.98 4.96 7.8 4.47333 7.44 4.1C7.08 3.72667 6.49333 3.54 5.68 3.54H1.54V14.64ZM1.7 14.46V3.72H5.68C6.44 3.72 6.98667 3.89333 7.32 4.24C7.65333 4.57333 7.82 5.01333 7.82 5.56V7.34C7.82 7.88667 7.76 8.39333 7.64 8.86C7.52 9.31333 7.31333 9.68 7.02 9.96C6.74 10.24 6.34 10.38 5.82 10.38H4.54V14.46H1.7ZM4.54 8.82H4.74C4.86 8.82 4.94667 8.69333 5 8.44C5.02667 8.30667 5.04667 8.12667 5.06 7.9C5.08667 7.66 5.1 7.37333 5.1 7.04C5.1 6.70667 5.09333 6.42667 5.08 6.2C5.08 5.96 5.07333 5.77333 5.06 5.64C5.02 5.37333 4.93333 5.24 4.8 5.24H4.54V8.82ZM4.72 8.64V5.44H4.8C4.85333 5.44 4.89333 5.55333 4.92 5.78C4.92 5.9 4.92 6.06667 4.92 6.28C4.93333 6.48 4.94 6.73333 4.94 7.04C4.94 7.64 4.92 8.05333 4.88 8.28C4.84 8.52 4.79333 8.64 4.74 8.64H4.72ZM13.0214 15V5.1H16.1814V5.58C16.4881 5.35333 16.8414 5.20667 17.2414 5.14C17.6547 5.06 18.0747 5.07333 18.5014 5.18V8.38L18.0814 8.3C17.9614 8.27333 17.8414 8.25333 17.7214 8.24C17.6014 8.22667 17.5081 8.22 17.4414 8.22C17.3214 8.22 17.2014 8.23333 17.0814 8.26C16.9747 8.27333 16.8881 8.30667 16.8214 8.36C16.7147 8.45333 16.6414 8.6 16.6014 8.8C16.5747 8.98667 16.5614 9.21333 16.5614 9.48V15H13.0214ZM13.3414 14.64H16.2414V9.48C16.2414 9.16 16.2614 8.88 16.3014 8.64C16.3547 8.4 16.4681 8.21333 16.6414 8.08C16.7347 8 16.8547 7.94667 17.0014 7.92C17.1481 7.88 17.2947 7.86 17.4414 7.86C17.5081 7.86 17.5814 7.86667 17.6614 7.88C17.7547 7.88 17.8414 7.88667 17.9214 7.9L18.1814 7.94V5.46C17.7414 5.35333 17.3214 5.37333 16.9214 5.52C16.5214 5.66667 16.2081 5.91333 15.9814 6.26L15.8414 5.44H13.3414V14.64ZM13.5214 14.46V5.62H15.7014L15.9014 6.76C16.0614 6.29333 16.3414 5.96 16.7414 5.76C17.1414 5.56 17.5614 5.50667 18.0014 5.6V7.74C17.9081 7.72667 17.8147 7.72 17.7214 7.72C17.6281 7.70667 17.5347 7.7 17.4414 7.7C17.2947 7.7 17.1347 7.71333 16.9614 7.74C16.7881 7.76667 16.6481 7.83333 16.5414 7.94C16.3547 8.08667 16.2281 8.29333 16.1614 8.56C16.1081 8.82667 16.0814 9.13333 16.0814 9.48V14.46H13.5214ZM23.1245 15V5.1H26.2445V15H23.1245ZM23.4045 14.64H25.9645V5.46H23.4045V14.64ZM23.5645 14.46V5.64H25.8045V14.46H23.5645ZM24.6845 4.44C24.2979 4.44 23.9579 4.3 23.6645 4.02C23.3845 3.72667 23.2445 3.39333 23.2445 3.02C23.2445 2.60667 23.3779 2.26 23.6445 1.98C23.9245 1.68667 24.2712 1.54 24.6845 1.54C25.0712 1.54 25.4045 1.67333 25.6845 1.94C25.9779 2.19333 26.1245 2.55333 26.1245 3.02C26.1245 3.39333 25.9779 3.72667 25.6845 4.02C25.4045 4.3 25.0712 4.44 24.6845 4.44ZM24.6845 4.12C24.9912 4.12 25.2512 4.01333 25.4645 3.8C25.6912 3.57333 25.8045 3.31333 25.8045 3.02C25.8045 2.67333 25.6912 2.4 25.4645 2.2C25.2512 2 24.9912 1.9 24.6845 1.9C24.3645 1.9 24.0979 2.00667 23.8845 2.22C23.6712 2.43333 23.5645 2.7 23.5645 3.02C23.5645 3.31333 23.6712 3.57333 23.8845 3.8C24.0979 4.01333 24.3645 4.12 24.6845 4.12ZM24.6845 3.96C24.4045 3.96 24.1712 3.86 23.9845 3.66C23.8112 3.46 23.7245 3.24667 23.7245 3.02C23.7245 2.76667 23.8112 2.54667 23.9845 2.36C24.1712 2.16 24.4045 2.06 24.6845 2.06C24.9379 2.06 25.1579 2.16 25.3445 2.36C25.5445 2.54667 25.6445 2.76667 25.6445 3.02C25.6445 3.24667 25.5445 3.46 25.3445 3.66C25.1579 3.86 24.9379 3.96 24.6845 3.96ZM31.0011 14.98V5.1H34.3411L34.4011 5.46C34.5878 5.31333 34.8011 5.2 35.0411 5.12C35.2944 5.02667 35.5811 4.98 35.9011 4.98C36.2478 4.98 36.5678 5.03333 36.8611 5.14C37.1678 5.24667 37.4211 5.41333 37.6211 5.64C37.8344 5.42667 38.0811 5.26667 38.3611 5.16C38.6544 5.04 38.9944 4.98 39.3811 4.98C40.1544 4.98 40.7278 5.20667 41.1011 5.66C41.4878 6.11333 41.6811 6.84 41.6811 7.84V14.98H31.0011ZM31.3611 14.62H34.4811V7.6H34.6211C34.6744 7.6 34.7144 7.62 34.7411 7.66C34.7678 7.7 34.7811 7.79333 34.7811 7.94V14.62H37.9011V7.6H38.0411C38.0944 7.6 38.1344 7.62 38.1611 7.66C38.1878 7.7 38.2011 7.79333 38.2011 7.94V14.62H41.3211V7.84C41.3211 6.93333 41.1544 6.29333 40.8211 5.92C40.5011 5.53333 39.9544 5.34 39.1811 5.34C38.8611 5.34 38.5611 5.42667 38.2811 5.6C38.0011 5.76 37.7811 5.97333 37.6211 6.24C37.2878 5.64 36.6678 5.34 35.7611 5.34C35.4411 5.34 35.1411 5.42 34.8611 5.58C34.5811 5.74 34.3544 5.96 34.1811 6.24L34.2411 6.5C34.2011 6.58 34.1611 6.66667 34.1211 6.76H34.2811L34.2411 6.5C34.3744 6.20667 34.5744 5.96667 34.8411 5.78C35.1211 5.59333 35.4278 5.5 35.7611 5.5C36.3078 5.5 36.7211 5.59333 37.0011 5.78C37.2811 5.96667 37.4811 6.24667 37.6011 6.62C37.7211 6.3 37.9211 6.03333 38.2011 5.82C38.4944 5.60667 38.8211 5.5 39.1811 5.5C39.9678 5.5 40.4944 5.7 40.7611 6.1C41.0278 6.48667 41.1611 7.06667 41.1611 7.84V14.46H38.3611V7.94C38.3611 7.60667 38.2544 7.44 38.0411 7.44C38.0011 7.44 37.9478 7.44667 37.8811 7.46C37.8278 7.46 37.7811 7.47333 37.7411 7.5V14.46H34.9411V7.94C34.9411 7.60667 34.8344 7.44 34.6211 7.44C34.5811 7.44 34.5278 7.44667 34.4611 7.46C34.4078 7.46 34.3611 7.47333 34.3211 7.5V14.46H31.5211V5.62H33.9011L34.0611 6.48C34.0211 6.56 33.9878 6.64667 33.9611 6.74H34.1211V6.78C34.1211 6.76667 34.1211 6.76 34.1211 6.76V6.74L34.0611 6.48C34.1011 6.4 34.1411 6.32 34.1811 6.24L34.0411 5.46H31.3611V14.62ZM49.8172 15.22C49.0172 15.22 48.3639 15.1267 47.8572 14.94C47.3505 14.74 46.9705 14.3733 46.7172 13.84C46.4772 13.3067 46.3572 12.52 46.3572 11.48V7.78C46.3572 6.7 46.6572 5.95333 47.2572 5.54C47.8572 5.12667 48.7105 4.92 49.8172 4.92C50.9239 4.92 51.7772 5.12667 52.3772 5.54C52.9772 5.95333 53.2772 6.7 53.2772 7.78V11.48C53.2772 12.52 53.1505 13.3067 52.8972 13.84C52.6439 14.3733 52.2639 14.74 51.7572 14.94C51.2505 15.1267 50.6039 15.22 49.8172 15.22ZM49.8172 14.86C50.5372 14.86 51.1239 14.7733 51.5772 14.6C52.0439 14.4267 52.3839 14.1 52.5972 13.62C52.8239 13.1267 52.9372 12.4133 52.9372 11.48V10.92H49.9372V12.7C49.9372 12.8467 49.9239 12.9467 49.8972 13C49.8839 13.04 49.8572 13.06 49.8172 13.06C49.7372 13.06 49.6972 12.94 49.6972 12.7V10.46H52.9372V7.78C52.9372 6.82 52.6639 6.16667 52.1172 5.82C51.5839 5.46 50.8172 5.28 49.8172 5.28C48.8172 5.28 48.0439 5.46 47.4972 5.82C46.9639 6.16667 46.6972 6.82 46.6972 7.78V11.48C46.6972 12.4133 46.8039 13.1267 47.0172 13.62C47.2439 14.1 47.5905 14.4267 48.0572 14.6C48.5239 14.7733 49.1105 14.86 49.8172 14.86ZM49.8172 14.68C49.1372 14.68 48.5772 14.6 48.1372 14.44C47.6972 14.2667 47.3705 13.9533 47.1572 13.5C46.9572 13.0333 46.8572 12.36 46.8572 11.48V7.78C46.8572 6.88667 47.1105 6.28 47.6172 5.96C48.1239 5.62667 48.8572 5.46 49.8172 5.46C50.7639 5.46 51.4905 5.62667 51.9972 5.96C52.5039 6.28 52.7572 6.88667 52.7572 7.78V10.28H49.5172V12.7C49.5172 12.9133 49.5439 13.06 49.5972 13.14C49.6505 13.2067 49.7239 13.24 49.8172 13.24C50.0039 13.24 50.0972 13.06 50.0972 12.7V11.1H52.7572V11.48C52.7572 12.36 52.6505 13.0333 52.4372 13.5C52.2372 13.9533 51.9172 14.2667 51.4772 14.44C51.0505 14.6 50.4972 14.68 49.8172 14.68ZM49.5172 9.08H50.0972V7.38C50.0972 7.04667 50.0039 6.88 49.8172 6.88C49.7239 6.88 49.6505 6.91333 49.5972 6.98C49.5439 7.04667 49.5172 7.18 49.5172 7.38V9.08ZM49.6972 8.9V7.36C49.6972 7.16 49.7372 7.06 49.8172 7.06C49.8972 7.06 49.9372 7.16 49.9372 7.36V8.9H49.6972Z" fill="#8A2BE2"/>
<path d="M7.144 29V19.544H10.744C11.5013 19.544 12.0453 19.72 12.376 20.072C12.7173 20.424 12.888 20.8827 12.888 21.448V22.376C12.888 23.0053 12.7227 23.5067 12.392 23.88C12.8613 24.2213 13.096 24.8027 13.096 25.624V26.744C13.096 27.5973 12.8773 28.1893 12.44 28.52C12.0027 28.84 11.3947 29 10.616 29H7.144ZM7.416 28.712H10.616C11.32 28.712 11.8587 28.568 12.232 28.28C12.616 27.992 12.808 27.48 12.808 26.744V25.624C12.808 24.6853 12.488 24.12 11.848 23.928C12.1147 23.7787 12.3067 23.5707 12.424 23.304C12.5413 23.0267 12.6 22.7173 12.6 22.376V21.448C12.6 20.968 12.456 20.5787 12.168 20.28C11.88 19.9813 11.4053 19.832 10.744 19.832H7.416V28.712ZM7.544 28.568V19.976H10.744C11.352 19.976 11.7893 20.1147 12.056 20.392C12.3333 20.6587 12.472 21.0107 12.472 21.448V22.376C12.472 22.7813 12.376 23.1333 12.184 23.432C12.0027 23.72 11.6933 23.8907 11.256 23.944V23.976C11.6507 23.976 11.9867 24.1093 12.264 24.376C12.5413 24.6427 12.68 25.0587 12.68 25.624V26.744C12.68 27.4373 12.4933 27.9173 12.12 28.184C11.7573 28.44 11.256 28.568 10.616 28.568H7.544ZM9.832 23.512H10.008C10.1147 23.512 10.1893 23.4 10.232 23.176C10.2533 23.0587 10.2693 22.936 10.28 22.808C10.2907 22.6693 10.296 22.52 10.296 22.36C10.296 22.1893 10.2907 22.0347 10.28 21.896C10.28 21.7573 10.2747 21.6347 10.264 21.528C10.2533 21.304 10.1787 21.192 10.04 21.192H9.832V23.512ZM9.976 23.368V21.352H10.04C10.0933 21.352 10.1253 21.448 10.136 21.64C10.1467 21.7467 10.152 21.8587 10.152 21.976C10.152 22.0933 10.152 22.2213 10.152 22.36C10.152 22.4987 10.1467 22.6267 10.136 22.744C10.136 22.8613 10.1307 22.968 10.12 23.064C10.1093 23.2667 10.072 23.368 10.008 23.368H9.976ZM9.832 27.384H10.04C10.136 27.384 10.2053 27.2667 10.248 27.032C10.28 26.7867 10.296 26.4987 10.296 26.168C10.296 25.9973 10.2907 25.8427 10.28 25.704C10.28 25.5547 10.2747 25.4213 10.264 25.304C10.2533 25.0693 10.1787 24.952 10.04 24.952H9.832V27.384ZM9.976 27.24V25.096H10.04C10.0933 25.096 10.1253 25.1973 10.136 25.4C10.1467 25.5067 10.152 25.624 10.152 25.752C10.152 25.88 10.152 26.0187 10.152 26.168C10.152 26.3173 10.152 26.456 10.152 26.584C10.152 26.7013 10.1467 26.8133 10.136 26.92C10.1147 27.1333 10.0827 27.24 10.04 27.24H9.976ZM17.925 29.176C17.285 29.176 16.7623 29.1013 16.357 28.952C15.9517 28.792 15.6477 28.4987 15.445 28.072C15.253 27.6453 15.157 27.016 15.157 26.184V23.224C15.157 22.36 15.397 21.7627 15.877 21.432C16.357 21.1013 17.0397 20.936 17.925 20.936C18.8103 20.936 19.493 21.1013 19.973 21.432C20.453 21.7627 20.693 22.36 20.693 23.224V26.184C20.693 27.016 20.5917 27.6453 20.389 28.072C20.1863 28.4987 19.8823 28.792 19.477 28.952C19.0717 29.1013 18.5543 29.176 17.925 29.176ZM17.925 28.888C18.501 28.888 18.9703 28.8187 19.333 28.68C19.7063 28.5413 19.9783 28.28 20.149 27.896C20.3303 27.5013 20.421 26.9307 20.421 26.184V23.224C20.421 22.456 20.2023 21.9333 19.765 21.656C19.3383 21.368 18.725 21.224 17.925 21.224C17.125 21.224 16.5063 21.368 16.069 21.656C15.6423 21.9333 15.429 22.456 15.429 23.224V26.184C15.429 26.9307 15.5143 27.5013 15.685 27.896C15.8663 28.28 16.1437 28.5413 16.517 28.68C16.8903 28.8187 17.3597 28.888 17.925 28.888ZM17.925 28.744C17.381 28.744 16.933 28.68 16.581 28.552C16.229 28.4133 15.9677 28.1627 15.797 27.8C15.637 27.4267 15.557 26.888 15.557 26.184V23.224C15.557 22.5093 15.7597 22.024 16.165 21.768C16.5703 21.5013 17.157 21.368 17.925 21.368C18.6823 21.368 19.2637 21.5013 19.669 21.768C20.0743 22.024 20.277 22.5093 20.277 23.224V26.184C20.277 26.888 20.1917 27.4267 20.021 27.8C19.861 28.1627 19.605 28.4133 19.253 28.552C18.9117 28.68 18.469 28.744 17.925 28.744ZM17.925 27.592C18.0317 27.592 18.0957 27.5493 18.117 27.464C18.1383 27.368 18.149 27.2827 18.149 27.208V22.888C18.149 22.7387 18.133 22.6373 18.101 22.584C18.069 22.5307 18.0103 22.504 17.925 22.504C17.8503 22.504 17.7917 22.5307 17.749 22.584C17.7063 22.6267 17.685 22.728 17.685 22.888V27.208C17.685 27.3147 17.6957 27.4053 17.717 27.48C17.749 27.5547 17.8183 27.592 17.925 27.592ZM17.925 27.448C17.861 27.448 17.829 27.368 17.829 27.208V22.888C17.829 22.728 17.861 22.648 17.925 22.648C17.989 22.648 18.021 22.728 18.021 22.888V27.208C18.021 27.368 17.989 27.448 17.925 27.448ZM25.6106 29.176C24.9706 29.176 24.448 29.1013 24.0426 28.952C23.6373 28.792 23.3333 28.4987 23.1306 28.072C22.9386 27.6453 22.8426 27.016 22.8426 26.184V23.224C22.8426 22.36 23.0826 21.7627 23.5626 21.432C24.0426 21.1013 24.7253 20.936 25.6106 20.936C26.496 20.936 27.1786 21.1013 27.6586 21.432C28.1386 21.7627 28.3786 22.36 28.3786 23.224V26.184C28.3786 27.016 28.2773 27.6453 28.0746 28.072C27.872 28.4987 27.568 28.792 27.1626 28.952C26.7573 29.1013 26.24 29.176 25.6106 29.176ZM25.6106 28.888C26.1866 28.888 26.656 28.8187 27.0186 28.68C27.392 28.5413 27.664 28.28 27.8346 27.896C28.016 27.5013 28.1066 26.9307 28.1066 26.184V23.224C28.1066 22.456 27.888 21.9333 27.4506 21.656C27.024 21.368 26.4106 21.224 25.6106 21.224C24.8106 21.224 24.192 21.368 23.7546 21.656C23.328 21.9333 23.1146 22.456 23.1146 23.224V26.184C23.1146 26.9307 23.2 27.5013 23.3706 27.896C23.552 28.28 23.8293 28.5413 24.2026 28.68C24.576 28.8187 25.0453 28.888 25.6106 28.888ZM25.6106 28.744C25.0666 28.744 24.6186 28.68 24.2666 28.552C23.9146 28.4133 23.6533 28.1627 23.4826 27.8C23.3226 27.4267 23.2426 26.888 23.2426 26.184V23.224C23.2426 22.5093 23.4453 22.024 23.8506 21.768C24.256 21.5013 24.8426 21.368 25.6106 21.368C26.368 21.368 26.9493 21.5013 27.3546 21.768C27.76 22.024 27.9626 22.5093 27.9626 23.224V26.184C27.9626 26.888 27.8773 27.4267 27.7066 27.8C27.5466 28.1627 27.2906 28.4133 26.9386 28.552C26.5973 28.68 26.1546 28.744 25.6106 28.744ZM25.6106 27.592C25.7173 27.592 25.7813 27.5493 25.8026 27.464C25.824 27.368 25.8346 27.2827 25.8346 27.208V22.888C25.8346 22.7387 25.8186 22.6373 25.7866 22.584C25.7546 22.5307 25.696 22.504 25.6106 22.504C25.536 22.504 25.4773 22.5307 25.4346 22.584C25.392 22.6267 25.3706 22.728 25.3706 22.888V27.208C25.3706 27.3147 25.3813 27.4053 25.4026 27.48C25.4346 27.5547 25.504 27.592 25.6106 27.592ZM25.6106 27.448C25.5466 27.448 25.5146 27.368 25.5146 27.208V22.888C25.5146 22.728 25.5466 22.648 25.6106 22.648C25.6746 22.648 25.7066 22.728 25.7066 22.888V27.208C25.7066 27.368 25.6746 27.448 25.6106 27.448ZM30.5603 29V18.92H33.5523V21.944L33.9363 20.888H36.9923L35.6003 24.456L36.8963 29H33.6803L33.5523 28.52V29H30.5603ZM30.8323 28.712H33.2643V25.848L33.8723 28.712H36.5123L35.3123 24.424L36.5763 21.192H34.1283L33.2643 23.56V19.208H30.8323V28.712ZM30.9763 28.568V19.352H33.1363V24.344L34.2243 21.336H36.3683L35.1523 24.424L36.3203 28.568H33.9843L33.1363 24.44V28.568H30.9763ZM41.842 29.208C40.7753 29.208 40.034 28.9947 39.618 28.568C39.2127 28.1307 39.01 27.4427 39.01 26.504V25.592H40.13C39.874 25.4213 39.65 25.1973 39.458 24.92C39.2767 24.6427 39.186 24.2587 39.186 23.768V23.368C39.186 22.4933 39.3993 21.864 39.826 21.48C40.2527 21.096 40.9833 20.904 42.018 20.904C43.0633 20.904 43.778 21.112 44.162 21.528C44.546 21.9333 44.738 22.5947 44.738 23.512V24.392H43.778C44.0553 24.552 44.2847 24.7653 44.466 25.032C44.6473 25.2987 44.738 25.6667 44.738 26.136V26.648C44.738 27.5547 44.5193 28.2107 44.082 28.616C43.6553 29.0107 42.9087 29.208 41.842 29.208ZM41.842 28.92C42.7913 28.92 43.4633 28.744 43.858 28.392C44.2633 28.0293 44.466 27.448 44.466 26.648V26.136C44.466 25.6347 44.3327 25.2453 44.066 24.968C43.7993 24.68 43.4633 24.4773 43.058 24.36L42.786 24.28C42.7007 24.2587 42.6153 24.2373 42.53 24.216C42.4553 24.184 42.386 24.1467 42.322 24.104H44.466V23.512C44.466 22.6907 44.29 22.0987 43.938 21.736C43.586 21.3627 42.946 21.176 42.018 21.176C41.0793 21.176 40.418 21.3467 40.034 21.688C39.65 22.0293 39.458 22.5893 39.458 23.368V23.768C39.458 24.3013 39.6073 24.7173 39.906 25.016C40.2153 25.304 40.5673 25.5173 40.962 25.656C41.0153 25.6773 41.1007 25.7147 41.218 25.768C41.3353 25.8213 41.4153 25.8587 41.458 25.88H39.282V26.504C39.282 27.3467 39.4633 27.96 39.826 28.344C40.1993 28.728 40.8713 28.92 41.842 28.92ZM41.842 28.776C40.9247 28.776 40.29 28.5947 39.938 28.232C39.5967 27.8587 39.426 27.2827 39.426 26.504V26.024H41.57V27C41.57 27.2027 41.586 27.352 41.618 27.448C41.6393 27.544 41.7033 27.592 41.81 27.592C41.8953 27.592 41.954 27.5547 41.986 27.48C42.018 27.4053 42.034 27.3147 42.034 27.208V26.552C42.034 26.2107 41.922 25.9813 41.698 25.864C41.4847 25.736 41.218 25.608 40.898 25.48C40.5567 25.3307 40.2527 25.1333 39.986 24.888C39.73 24.6427 39.602 24.2693 39.602 23.768V23.368C39.602 22.6427 39.7833 22.12 40.146 21.8C40.5193 21.48 41.1433 21.32 42.018 21.32C42.8927 21.32 43.4953 21.496 43.826 21.848C44.1567 22.1893 44.322 22.744 44.322 23.512V23.96H42.258V23.064C42.258 22.9787 42.2527 22.8987 42.242 22.824C42.242 22.7493 42.2367 22.6907 42.226 22.648C42.194 22.552 42.13 22.504 42.034 22.504C41.938 22.504 41.874 22.5413 41.842 22.616C41.81 22.68 41.794 22.7653 41.794 22.872V23.544C41.794 23.7573 41.8527 23.9227 41.97 24.04C42.0873 24.1467 42.2367 24.232 42.418 24.296C42.61 24.36 42.8073 24.4293 43.01 24.504C43.3727 24.6427 43.682 24.8293 43.938 25.064C44.194 25.2987 44.322 25.656 44.322 26.136V26.648C44.322 27.3947 44.1353 27.9387 43.762 28.28C43.3887 28.6107 42.7487 28.776 41.842 28.776ZM42.13 23.976C42.002 23.88 41.938 23.736 41.938 23.544V22.872C41.938 22.808 41.938 22.7547 41.938 22.712C41.9487 22.6693 41.9807 22.648 42.034 22.648C42.098 22.648 42.13 22.7867 42.13 23.064V23.976ZM41.81 27.448C41.746 27.448 41.714 27.2987 41.714 27V26.024C41.842 26.152 41.906 26.328 41.906 26.552V27.208C41.906 27.368 41.874 27.448 41.81 27.448Z" fill="#8A2BE2"/>
</g>
<defs>
<clipPath id="clip0_8_9">
<rect width="53" height="30" fill="white"/>
</clipPath>
</defs>
</svg>
