<svg xmlns="http://www.w3.org/2000/svg" width="64" height="64" viewBox="0 0 16.933 16.933"><path fill-rule="evenodd" d="M16 3c-2.753 0-5 2.247-5 5v3.426c-4.609 1.311-8.004 5.549-8.004 10.57S6.391 31.263 11 32.576V51H6c-1.645 0-3 1.355-3 3v2c0 2.753 2.247 5 5 5h40c2.753 0 5-2.247 5-5v-4c.02-1.352-2.02-1.352-2 0v4c0 1.68-1.32 3-3 3s-3-1.32-3-3v-2c0-1.645-1.355-3-3-3H13V32.953c.331.03.665.05 1.004.05 6.063 0 10.998-4.944 10.998-11.007s-4.935-10.998-10.998-10.998c-.339 0-.673.02-1.004.05V8c0-1.68 1.32-3 3-3h24c1.352.019 1.352-2.018 0-2H16zm28 0c-1.352-.019-1.352 2.018 0 2h8.027A4.947 4.947 0 0 0 51 8v40c-.02 1.352 2.02 1.352 2 0V25h5c1.645 0 3-1.355 3-3V8c0-2.753-2.247-5-5-5H44zm12 2c1.68 0 3 1.32 3 3v14c0 .571-.429 1-1 1h-5V8c0-1.68 1.32-3 3-3zm-28 5.998a1 1 0 1 0 0 2h16.004a1 1 0 1 0 0-2H28zm-13.996 2a8.982 8.982 0 0 1 8.998 8.998 8.988 8.988 0 0 1-8.998 9.006 8.995 8.995 0 0 1-9.006-9.006 8.988 8.988 0 0 1 9.006-8.998zm13.996 2A1 1 0 1 0 28 17h16.004a1 1 0 1 0 0-2.002H28zM13.986 15a1 1 0 0 0-.103.008 1 1 0 0 0-.887 1.012v.996H12c-1.645 0-2.996 1.36-2.996 3.005A3.009 3.009 0 0 0 12 23.018h.996v2H12a.97.97 0 0 1-.996-.997 1 1 0 1 0-2 0A3.01 3.01 0 0 0 12 27.02h.996v1.003a1 1 0 0 0 2 0V27.02h1.006a3.01 3.01 0 0 0 2.996-2.999c0-1.644-1.351-3.003-2.996-3.003h-1.006v-2h1.006c.571 0 .996.432.996 1.003a1 1 0 0 0 2 0c0-1.644-1.351-3.005-2.996-3.005h-1.006v-.996a1 1 0 0 0-1.01-1.018V15zM28 19a1 1 0 1 0 0 2h4a1 1 0 1 0 0-2h-4zm8 0a1 1 0 0 0-1 1 1 1 0 0 0 1 1 1 1 0 0 0 1-1 1 1 0 0 0-1-1zm-24 .016h.996v2H12a.97.97 0 0 1-.996-.996c0-.572.425-1.004.996-1.004zM39.898 23a1.002 1.002 0 0 0 .104 2.002h1.586L32 34.584l-3.291-3.293a1 1 0 0 0-1.418 0l-7.994 8.002c-1.007.94.465 2.42 1.41 1.418L28 33.416l3.291 3.293a1 1 0 0 0 1.418 0L43 26.412v1.586a1 1 0 1 0 2 0v-4a1 1 0 0 0-.996-.998h-4.002a1 1 0 0 0-.104 0zm-24.902.016h1.006c.571 0 .996.432.996 1.004a.97.97 0 0 1-.996.996h-1.006v-2zm28.984 7.972A1 1 0 0 0 43 32v12.002a1 1 0 0 0 2 0V32a1 1 0 0 0-1.02-1.012zm-3.992 2a1 1 0 0 0-.99 1.012v10.002a1 1 0 0 0 2 0V34a1 1 0 0 0-1.01-1.012zm-12.004 3.994a1 1 0 0 0-.98 1.018v6.002a1 1 0 0 0 2 0V38a1 1 0 0 0-1.02-1.018zm8.002 0A1 1 0 0 0 34.998 38v6.002a1 1 0 1 0 2 0V38a1 1 0 0 0-1.012-1.018zm-4 2a1 1 0 0 0-.99 1.02v4a1 1 0 1 0 2 0v-4a1 1 0 0 0-1.01-1.02zm-8.002 2a1 1 0 0 0-.982 1.02v2a1 1 0 0 0 2 0v-2a1 1 0 0 0-1.018-1.02zM20 43a1 1 0 0 0-1 1 1 1 0 0 0 1 1 1 1 0 0 0 1-1 1 1 0 0 0-1-1zM6 53h36c.571 0 1 .429 1 1v2c0 1.13.391 2.161 1.027 3H8c-1.68 0-3-1.32-3-3v-2c0-.571.429-1 1-1z" color="#000" font-family="sans-serif" font-weight="400" overflow="visible" paint-order="stroke fill markers" transform="scale(.26458)" style="line-height:normal;font-variant-ligatures:normal;font-variant-position:normal;font-variant-caps:normal;font-variant-numeric:normal;font-variant-alternates:normal;font-feature-settings:normal;text-indent:0;text-align:start;text-decoration-line:none;text-decoration-style:solid;text-decoration-color:#000;text-transform:none;text-orientation:mixed;shape-padding:0;isolation:auto;mix-blend-mode:normal"/></svg>