<svg width="207" height="24" viewBox="0 0 207 24" fill="none" xmlns="http://www.w3.org/2000/svg">
<g filter="url(#filter0_i_1_14)">
<path d="M0.976 23V0.664H9.872C11.8773 0.664 13.4133 1.24 14.48 2.392C15.568 3.52267 16.112 5.08 16.112 7.064C16.112 9.048 15.568 10.616 14.48 11.768C13.4133 12.8987 11.8773 13.464 9.872 13.464H3.664V23H0.976ZM3.664 11.096H9.872C10.9387 11.096 11.76 10.8187 12.336 10.264C12.9333 9.70933 13.232 8.92 13.232 7.896V6.232C13.232 5.208 12.9333 4.41867 12.336 3.864C11.76 3.30933 10.9387 3.032 9.872 3.032H3.664V11.096ZM23.0703 23H20.3823V0.664H29.2783C31.2409 0.664 32.7663 1.208 33.8542 2.296C34.9636 3.384 35.5183 4.952 35.5183 7C35.5183 8.64267 35.1343 9.99733 34.3663 11.064C33.6196 12.1093 32.5103 12.8027 31.0383 13.144L36.1583 23H33.1183L28.2863 13.4H23.0703V23ZM29.2783 11.096C30.3449 11.096 31.1663 10.8187 31.7423 10.264C32.3396 9.70933 32.6383 8.92 32.6383 7.896V6.232C32.6383 5.208 32.3396 4.41867 31.7423 3.864C31.1663 3.30933 30.3449 3.032 29.2783 3.032H23.0703V11.096H29.2783ZM39.795 23V20.76H42.931V2.904H39.795V0.664H48.755V2.904H45.619V20.76H48.755V23H39.795ZM71.0715 4.184H70.9115L69.0235 7.928L63.6795 17.656L58.3355 7.928L56.4475 4.184H56.2875V23H53.6635V0.664H57.2475L63.6475 12.696H63.8075L70.2395 0.664H73.6955V23H71.0715V4.184ZM79.6323 23V0.664H93.2643V3.032H82.3203V10.52H92.6243V12.888H82.3203V20.632H93.2643V23H79.6323ZM105.851 0.664H115.035C116.891 0.664 118.342 1.18667 119.387 2.232C120.454 3.27733 120.987 4.67467 120.987 6.424C120.987 7.256 120.87 7.96 120.635 8.536C120.4 9.112 120.102 9.592 119.739 9.976C119.376 10.3387 118.982 10.616 118.555 10.808C118.128 10.9787 117.734 11.096 117.371 11.16V11.352C117.776 11.3733 118.224 11.48 118.715 11.672C119.227 11.864 119.707 12.1733 120.155 12.6C120.603 13.0053 120.976 13.5387 121.275 14.2C121.595 14.84 121.755 15.6187 121.755 16.536C121.755 17.4533 121.606 18.3067 121.307 19.096C121.03 19.8853 120.635 20.568 120.123 21.144C119.611 21.72 119.003 22.1787 118.299 22.52C117.595 22.84 116.827 23 115.995 23H105.851V0.664ZM108.539 20.632H115.163C116.315 20.632 117.222 20.344 117.883 19.768C118.544 19.1707 118.875 18.3067 118.875 17.176V16.088C118.875 14.9573 118.544 14.104 117.883 13.528C117.222 12.9307 116.315 12.632 115.163 12.632H108.539V20.632ZM108.539 10.328H114.715C115.782 10.328 116.614 10.0613 117.211 9.528C117.808 8.99467 118.107 8.22667 118.107 7.224V6.136C118.107 5.13333 117.808 4.36533 117.211 3.832C116.614 3.29867 115.782 3.032 114.715 3.032H108.539V10.328ZM135.109 23.384C133.659 23.384 132.347 23.1387 131.173 22.648C130.021 22.136 129.029 21.4 128.197 20.44C127.387 19.4587 126.757 18.2533 126.309 16.824C125.861 15.3733 125.637 13.7093 125.637 11.832C125.637 9.95467 125.861 8.30133 126.309 6.872C126.757 5.44267 127.387 4.23733 128.197 3.256C129.029 2.27467 130.021 1.53867 131.173 1.048C132.347 0.535999 133.659 0.279999 135.109 0.279999C136.539 0.279999 137.84 0.535999 139.013 1.048C140.187 1.53867 141.179 2.27467 141.989 3.256C142.821 4.23733 143.461 5.44267 143.909 6.872C144.357 8.30133 144.581 9.95467 144.581 11.832C144.581 13.7093 144.357 15.3733 143.909 16.824C143.461 18.2533 142.821 19.4587 141.989 20.44C141.179 21.4 140.187 22.136 139.013 22.648C137.84 23.1387 136.539 23.384 135.109 23.384ZM135.109 20.984C136.069 20.984 136.955 20.8133 137.765 20.472C138.576 20.1307 139.269 19.64 139.845 19C140.443 18.36 140.901 17.592 141.221 16.696C141.541 15.8 141.701 14.7973 141.701 13.688V9.976C141.701 8.86667 141.541 7.864 141.221 6.968C140.901 6.072 140.443 5.304 139.845 4.664C139.269 4.024 138.576 3.53333 137.765 3.192C136.955 2.85067 136.069 2.68 135.109 2.68C134.149 2.68 133.264 2.85067 132.453 3.192C131.643 3.53333 130.939 4.024 130.341 4.664C129.765 5.304 129.317 6.072 128.997 6.968C128.677 7.864 128.517 8.86667 128.517 9.976V13.688C128.517 14.7973 128.677 15.8 128.997 16.696C129.317 17.592 129.765 18.36 130.341 19C130.939 19.64 131.643 20.1307 132.453 20.472C133.264 20.8133 134.149 20.984 135.109 20.984ZM157.766 23.384C156.315 23.384 155.003 23.1387 153.83 22.648C152.678 22.136 151.686 21.4 150.854 20.44C150.043 19.4587 149.414 18.2533 148.966 16.824C148.518 15.3733 148.294 13.7093 148.294 11.832C148.294 9.95467 148.518 8.30133 148.966 6.872C149.414 5.44267 150.043 4.23733 150.854 3.256C151.686 2.27467 152.678 1.53867 153.83 1.048C155.003 0.535999 156.315 0.279999 157.766 0.279999C159.195 0.279999 160.496 0.535999 161.67 1.048C162.843 1.53867 163.835 2.27467 164.646 3.256C165.478 4.23733 166.118 5.44267 166.566 6.872C167.014 8.30133 167.238 9.95467 167.238 11.832C167.238 13.7093 167.014 15.3733 166.566 16.824C166.118 18.2533 165.478 19.4587 164.646 20.44C163.835 21.4 162.843 22.136 161.67 22.648C160.496 23.1387 159.195 23.384 157.766 23.384ZM157.766 20.984C158.726 20.984 159.611 20.8133 160.422 20.472C161.232 20.1307 161.926 19.64 162.502 19C163.099 18.36 163.558 17.592 163.878 16.696C164.198 15.8 164.358 14.7973 164.358 13.688V9.976C164.358 8.86667 164.198 7.864 163.878 6.968C163.558 6.072 163.099 5.304 162.502 4.664C161.926 4.024 161.232 3.53333 160.422 3.192C159.611 2.85067 158.726 2.68 157.766 2.68C156.806 2.68 155.92 2.85067 155.11 3.192C154.299 3.53333 153.595 4.024 152.998 4.664C152.422 5.304 151.974 6.072 151.654 6.968C151.334 7.864 151.174 8.86667 151.174 9.976V13.688C151.174 14.7973 151.334 15.8 151.654 16.696C151.974 17.592 152.422 18.36 152.998 19C153.595 19.64 154.299 20.1307 155.11 20.472C155.92 20.8133 156.806 20.984 157.766 20.984ZM177.926 12.024L174.758 15.544V23H172.07V0.664H174.758V12.536H174.854L178.054 8.664L184.806 0.664H188.102L179.782 10.232L188.678 23H185.35L177.926 12.024ZM198.467 23.384C196.653 23.384 195.107 23.0427 193.827 22.36C192.547 21.656 191.459 20.696 190.563 19.48L192.547 17.816C193.336 18.8613 194.211 19.6613 195.171 20.216C196.131 20.7493 197.261 21.016 198.563 21.016C200.163 21.016 201.379 20.632 202.211 19.864C203.064 19.096 203.491 18.072 203.491 16.792C203.491 15.7253 203.171 14.904 202.531 14.328C201.891 13.752 200.835 13.2933 199.363 12.952L197.539 12.536C195.491 12.0667 193.923 11.3627 192.835 10.424C191.768 9.464 191.235 8.12 191.235 6.392C191.235 5.41067 191.416 4.536 191.779 3.768C192.141 3 192.643 2.36 193.283 1.848C193.944 1.336 194.723 0.951998 195.619 0.695999C196.536 0.418666 197.539 0.279999 198.627 0.279999C200.312 0.279999 201.752 0.589332 202.947 1.208C204.163 1.82667 205.187 2.73333 206.019 3.928L204.003 5.4C203.384 4.54667 202.637 3.87467 201.763 3.384C200.888 2.89333 199.8 2.648 198.499 2.648C197.069 2.648 195.939 2.95733 195.107 3.576C194.296 4.17333 193.891 5.08 193.891 6.296C193.891 7.36267 194.232 8.17333 194.915 8.728C195.619 9.26133 196.675 9.688 198.083 10.008L199.907 10.424C202.104 10.9147 203.693 11.6613 204.675 12.664C205.656 13.6667 206.147 15 206.147 16.664C206.147 17.688 205.965 18.616 205.603 19.448C205.261 20.28 204.76 20.984 204.099 21.56C203.437 22.136 202.627 22.584 201.667 22.904C200.728 23.224 199.661 23.384 198.467 23.384Z" fill="#F7F5FF"/>
</g>
<path d="M0.976 23H-0.0239999V24H0.976V23ZM0.976 0.664V-0.336H-0.0239999V0.664H0.976ZM14.48 2.392L13.7462 3.07141L13.7528 3.07846L13.7594 3.08538L14.48 2.392ZM14.48 11.768L13.753 11.0814L13.7526 11.0818L14.48 11.768ZM3.664 13.464V12.464H2.664V13.464H3.664ZM3.664 23V24H4.664V23H3.664ZM3.664 11.096H2.664V12.096H3.664V11.096ZM12.336 10.264L11.6555 9.53121L11.6489 9.53738L11.6424 9.54368L12.336 10.264ZM12.336 3.864L11.6424 4.58432L11.6489 4.59062L11.6555 4.59679L12.336 3.864ZM3.664 3.032V2.032H2.664V3.032H3.664ZM1.976 23V0.664H-0.0239999V23H1.976ZM0.976 1.664H9.872V-0.336H0.976V1.664ZM9.872 1.664C11.6808 1.664 12.9182 2.17707 13.7462 3.07141L15.2138 1.71259C13.9085 0.302924 12.0739 -0.336 9.872 -0.336V1.664ZM13.7594 3.08538C14.624 3.98389 15.112 5.26705 15.112 7.064H17.112C17.112 4.89295 16.512 3.06144 15.2006 1.69862L13.7594 3.08538ZM15.112 7.064C15.112 8.86002 14.6243 10.1588 13.753 11.0814L15.207 12.4546C16.5117 11.0732 17.112 9.23597 17.112 7.064H15.112ZM13.7526 11.0818C12.9258 11.9582 11.6863 12.464 9.872 12.464V14.464C12.0684 14.464 13.9009 13.8391 15.2074 12.4542L13.7526 11.0818ZM9.872 12.464H3.664V14.464H9.872V12.464ZM2.664 13.464V23H4.664V13.464H2.664ZM3.664 22H0.976V24H3.664V22ZM3.664 12.096H9.872V10.096H3.664V12.096ZM9.872 12.096C11.1086 12.096 12.2119 11.7717 13.0296 10.9843L11.6424 9.54368C11.3081 9.86558 10.7687 10.096 9.872 10.096V12.096ZM13.0165 10.9968C13.8673 10.2067 14.232 9.12204 14.232 7.896H12.232C12.232 8.71796 11.9994 9.21193 11.6555 9.53121L13.0165 10.9968ZM14.232 7.896V6.232H12.232V7.896H14.232ZM14.232 6.232C14.232 5.00596 13.8673 3.92126 13.0165 3.13121L11.6555 4.59679C11.9994 4.91607 12.232 5.41004 12.232 6.232H14.232ZM13.0296 3.14368C12.2119 2.35625 11.1086 2.032 9.872 2.032V4.032C10.7687 4.032 11.3081 4.26241 11.6424 4.58432L13.0296 3.14368ZM9.872 2.032H3.664V4.032H9.872V2.032ZM2.664 3.032V11.096H4.664V3.032H2.664ZM23.0703 23V24H24.0703V23H23.0703ZM20.3823 23H19.3823V24H20.3823V23ZM20.3823 0.664V-0.336H19.3823V0.664H20.3823ZM33.8542 2.296L33.1471 3.00314L33.154 3.00994L33.8542 2.296ZM34.3663 11.064L33.5547 10.4797L33.5525 10.4828L34.3663 11.064ZM31.0383 13.144L30.8124 12.1698L29.5566 12.461L30.1508 13.605L31.0383 13.144ZM36.1583 23V24H37.8046L37.0457 22.539L36.1583 23ZM33.1183 23L32.225 23.4496L32.5021 24H33.1183V23ZM28.2863 13.4L29.1795 12.9504L28.9024 12.4H28.2863V13.4ZM23.0703 13.4V12.4H22.0703V13.4H23.0703ZM31.7423 10.264L31.0618 9.53121L31.0551 9.53738L31.0486 9.54368L31.7423 10.264ZM31.7423 3.864L31.0486 4.58432L31.0551 4.59062L31.0618 4.59679L31.7423 3.864ZM23.0703 3.032V2.032H22.0703V3.032H23.0703ZM23.0703 11.096H22.0703V12.096H23.0703V11.096ZM23.0703 22H20.3823V24H23.0703V22ZM21.3823 23V0.664H19.3823V23H21.3823ZM20.3823 1.664H29.2783V-0.336H20.3823V1.664ZM29.2783 1.664C31.0524 1.664 32.2947 2.15067 33.1471 3.00311L34.5614 1.58889C33.2378 0.265326 31.4295 -0.336 29.2783 -0.336V1.664ZM33.154 3.00994C34.0163 3.85563 34.5183 5.1317 34.5183 7H36.5183C36.5183 4.7723 35.9109 2.91237 34.5545 1.58206L33.154 3.00994ZM34.5183 7C34.5183 8.48587 34.1725 9.62164 33.5547 10.4797L35.1778 11.6483C36.096 10.373 36.5183 8.79946 36.5183 7H34.5183ZM33.5525 10.4828C32.9717 11.2959 32.0913 11.8733 30.8124 12.1698L31.2641 14.1182C32.9292 13.7321 34.2674 12.9228 35.18 11.6452L33.5525 10.4828ZM30.1508 13.605L35.2708 23.461L37.0457 22.539L31.9257 12.683L30.1508 13.605ZM36.1583 22H33.1183V24H36.1583V22ZM34.0115 22.5504L29.1795 12.9504L27.393 13.8496L32.225 23.4496L34.0115 22.5504ZM28.2863 12.4H23.0703V14.4H28.2863V12.4ZM22.0703 13.4V23H24.0703V13.4H22.0703ZM29.2783 12.096C30.5149 12.096 31.6182 11.7717 32.4359 10.9843L31.0486 9.54368C30.7143 9.86558 30.1749 10.096 29.2783 10.096V12.096ZM32.4227 10.9968C33.2735 10.2067 33.6383 9.12204 33.6383 7.896H31.6383C31.6383 8.71796 31.4056 9.21193 31.0618 9.53121L32.4227 10.9968ZM33.6383 7.896V6.232H31.6383V7.896H33.6383ZM33.6383 6.232C33.6383 5.00596 33.2735 3.92126 32.4227 3.13121L31.0618 4.59679C31.4056 4.91607 31.6383 5.41004 31.6383 6.232H33.6383ZM32.4359 3.14368C31.6182 2.35625 30.5149 2.032 29.2783 2.032V4.032C30.1749 4.032 30.7143 4.26241 31.0486 4.58432L32.4359 3.14368ZM29.2783 2.032H23.0703V4.032H29.2783V2.032ZM22.0703 3.032V11.096H24.0703V3.032H22.0703ZM23.0703 12.096H29.2783V10.096H23.0703V12.096ZM39.795 23H38.795V24H39.795V23ZM39.795 20.76V19.76H38.795V20.76H39.795ZM42.931 20.76V21.76H43.931V20.76H42.931ZM42.931 2.904H43.931V1.904H42.931V2.904ZM39.795 2.904H38.795V3.904H39.795V2.904ZM39.795 0.664V-0.336H38.795V0.664H39.795ZM48.755 0.664H49.755V-0.336H48.755V0.664ZM48.755 2.904V3.904H49.755V2.904H48.755ZM45.619 2.904V1.904H44.619V2.904H45.619ZM45.619 20.76H44.619V21.76H45.619V20.76ZM48.755 20.76H49.755V19.76H48.755V20.76ZM48.755 23V24H49.755V23H48.755ZM40.795 23V20.76H38.795V23H40.795ZM39.795 21.76H42.931V19.76H39.795V21.76ZM43.931 20.76V2.904H41.931V20.76H43.931ZM42.931 1.904H39.795V3.904H42.931V1.904ZM40.795 2.904V0.664H38.795V2.904H40.795ZM39.795 1.664H48.755V-0.336H39.795V1.664ZM47.755 0.664V2.904H49.755V0.664H47.755ZM48.755 1.904H45.619V3.904H48.755V1.904ZM44.619 2.904V20.76H46.619V2.904H44.619ZM45.619 21.76H48.755V19.76H45.619V21.76ZM47.755 20.76V23H49.755V20.76H47.755ZM48.755 22H39.795V24H48.755V22ZM71.0715 4.184H72.0715V3.184H71.0715V4.184ZM70.9115 4.184V3.184H70.2958L70.0186 3.73374L70.9115 4.184ZM69.0235 7.928L69.9 8.40948L69.9085 8.39401L69.9164 8.37826L69.0235 7.928ZM63.6795 17.656L62.803 18.1375L63.6795 19.7329L64.556 18.1375L63.6795 17.656ZM58.3355 7.928L57.4426 8.37826L57.4505 8.39401L57.459 8.40948L58.3355 7.928ZM56.4475 4.184L57.3404 3.73374L57.0632 3.184H56.4475V4.184ZM56.2875 4.184V3.184H55.2875V4.184H56.2875ZM56.2875 23V24H57.2875V23H56.2875ZM53.6635 23H52.6635V24H53.6635V23ZM53.6635 0.664V-0.336H52.6635V0.664H53.6635ZM57.2475 0.664L58.1304 0.194387L57.8483 -0.336H57.2475V0.664ZM63.6475 12.696L62.7646 13.1656L63.0467 13.696H63.6475V12.696ZM63.8075 12.696V13.696H64.4068L64.6894 13.1674L63.8075 12.696ZM70.2395 0.664V-0.336H69.6402L69.3576 0.192559L70.2395 0.664ZM73.6955 0.664H74.6955V-0.336H73.6955V0.664ZM73.6955 23V24H74.6955V23H73.6955ZM71.0715 23H70.0715V24H71.0715V23ZM71.0715 3.184H70.9115V5.184H71.0715V3.184ZM70.0186 3.73374L68.1306 7.47774L69.9164 8.37826L71.8044 4.63426L70.0186 3.73374ZM68.147 7.44652L62.803 17.1745L64.556 18.1375L69.9 8.40948L68.147 7.44652ZM64.556 17.1745L59.212 7.44652L57.459 8.40948L62.803 18.1375L64.556 17.1745ZM59.2284 7.47774L57.3404 3.73374L55.5546 4.63426L57.4426 8.37826L59.2284 7.47774ZM56.4475 3.184H56.2875V5.184H56.4475V3.184ZM55.2875 4.184V23H57.2875V4.184H55.2875ZM56.2875 22H53.6635V24H56.2875V22ZM54.6635 23V0.664H52.6635V23H54.6635ZM53.6635 1.664H57.2475V-0.336H53.6635V1.664ZM56.3646 1.13361L62.7646 13.1656L64.5304 12.2264L58.1304 0.194387L56.3646 1.13361ZM63.6475 13.696H63.8075V11.696H63.6475V13.696ZM64.6894 13.1674L71.1214 1.13544L69.3576 0.192559L62.9256 12.2246L64.6894 13.1674ZM70.2395 1.664H73.6955V-0.336H70.2395V1.664ZM72.6955 0.664V23H74.6955V0.664H72.6955ZM73.6955 22H71.0715V24H73.6955V22ZM72.0715 23V4.184H70.0715V23H72.0715ZM79.6323 23H78.6323V24H79.6323V23ZM79.6323 0.664V-0.336H78.6323V0.664H79.6323ZM93.2643 0.664H94.2643V-0.336H93.2643V0.664ZM93.2643 3.032V4.032H94.2643V3.032H93.2643ZM82.3203 3.032V2.032H81.3203V3.032H82.3203ZM82.3203 10.52H81.3203V11.52H82.3203V10.52ZM92.6243 10.52H93.6243V9.52H92.6243V10.52ZM92.6243 12.888V13.888H93.6243V12.888H92.6243ZM82.3203 12.888V11.888H81.3203V12.888H82.3203ZM82.3203 20.632H81.3203V21.632H82.3203V20.632ZM93.2643 20.632H94.2643V19.632H93.2643V20.632ZM93.2643 23V24H94.2643V23H93.2643ZM80.6323 23V0.664H78.6323V23H80.6323ZM79.6323 1.664H93.2643V-0.336H79.6323V1.664ZM92.2643 0.664V3.032H94.2643V0.664H92.2643ZM93.2643 2.032H82.3203V4.032H93.2643V2.032ZM81.3203 3.032V10.52H83.3203V3.032H81.3203ZM82.3203 11.52H92.6243V9.52H82.3203V11.52ZM91.6243 10.52V12.888H93.6243V10.52H91.6243ZM92.6243 11.888H82.3203V13.888H92.6243V11.888ZM81.3203 12.888V20.632H83.3203V12.888H81.3203ZM82.3203 21.632H93.2643V19.632H82.3203V21.632ZM92.2643 20.632V23H94.2643V20.632H92.2643ZM93.2643 22H79.6323V24H93.2643V22ZM105.851 0.664V-0.336H104.851V0.664H105.851ZM119.387 2.232L118.68 2.93914L118.687 2.94621L119.387 2.232ZM120.635 8.536L119.709 8.1587L119.709 8.1587L120.635 8.536ZM119.739 9.976L120.446 10.6831L120.456 10.673L120.466 10.6626L119.739 9.976ZM118.555 10.808L118.926 11.7365L118.946 11.7286L118.965 11.7199L118.555 10.808ZM117.371 11.16L117.197 10.1752L116.371 10.321V11.16H117.371ZM117.371 11.352H116.371V12.3008L117.318 12.3506L117.371 11.352ZM118.715 11.672L118.351 12.6032L118.357 12.6058L118.364 12.6083L118.715 11.672ZM120.155 12.6L119.465 13.3241L119.475 13.333L119.484 13.3415L120.155 12.6ZM121.275 14.2L120.364 14.6116L120.372 14.6296L120.381 14.6472L121.275 14.2ZM121.307 19.096L120.372 18.7421L120.367 18.7533L120.364 18.7645L121.307 19.096ZM120.123 21.144L119.376 20.4796L119.376 20.4796L120.123 21.144ZM118.299 22.52L118.713 23.4304L118.724 23.4252L118.735 23.4198L118.299 22.52ZM105.851 23H104.851V24H105.851V23ZM108.539 20.632H107.539V21.632H108.539V20.632ZM117.883 19.768L118.54 20.5221L118.547 20.5162L118.553 20.5101L117.883 19.768ZM117.883 13.528L117.213 14.2701L117.219 14.2762L117.226 14.2821L117.883 13.528ZM108.539 12.632V11.632H107.539V12.632H108.539ZM108.539 10.328H107.539V11.328H108.539V10.328ZM117.211 9.528L116.545 8.78206L116.545 8.78206L117.211 9.528ZM117.211 3.832L117.877 3.08606L117.877 3.08606L117.211 3.832ZM108.539 3.032V2.032H107.539V3.032H108.539ZM105.851 1.664H115.035V-0.336H105.851V1.664ZM115.035 1.664C116.697 1.664 117.867 2.12643 118.68 2.93911L120.094 1.52489C118.816 0.246904 117.085 -0.336 115.035 -0.336V1.664ZM118.687 2.94621C119.529 3.77125 119.987 4.89358 119.987 6.424H121.987C121.987 4.45575 121.378 2.78342 120.087 1.51779L118.687 2.94621ZM119.987 6.424C119.987 7.16784 119.881 7.73552 119.709 8.1587L121.561 8.9133C121.858 8.18448 121.987 7.34416 121.987 6.424H119.987ZM119.709 8.1587C119.513 8.64012 119.276 9.00972 119.012 9.28938L120.466 10.6626C120.927 10.1743 121.288 9.58388 121.561 8.9133L119.709 8.1587ZM119.032 9.26889C118.747 9.55412 118.451 9.75838 118.145 9.89608L118.965 11.7199C119.513 11.4736 120.006 11.1232 120.446 10.6831L119.032 9.26889ZM118.184 9.87952C117.806 10.0307 117.478 10.1257 117.197 10.1752L117.545 12.1448C117.989 12.0663 118.451 11.9267 118.926 11.7365L118.184 9.87952ZM116.371 11.16V11.352H118.371V11.16H116.371ZM117.318 12.3506C117.59 12.3649 117.932 12.4393 118.351 12.6032L119.079 10.7408C118.517 10.5207 117.962 10.3817 117.424 10.3534L117.318 12.3506ZM118.364 12.6083C118.734 12.7473 119.102 12.9781 119.465 13.3241L120.845 11.8759C120.312 11.3686 119.72 10.9807 119.066 10.7357L118.364 12.6083ZM119.484 13.3415C119.812 13.638 120.11 14.0509 120.364 14.6116L122.186 13.7884C121.842 13.0265 121.394 12.3727 120.826 11.8585L119.484 13.3415ZM120.381 14.6472C120.614 15.1148 120.755 15.7315 120.755 16.536H122.755C122.755 15.5058 122.576 14.5652 122.169 13.7528L120.381 14.6472ZM120.755 16.536C120.755 17.343 120.624 18.0753 120.372 18.7421L122.242 19.4499C122.587 18.538 122.755 17.5637 122.755 16.536H120.755ZM120.364 18.7645C120.126 19.4418 119.794 20.0088 119.376 20.4796L120.87 21.8084C121.476 21.1272 121.934 20.3289 122.25 19.4275L120.364 18.7645ZM119.376 20.4796C118.952 20.956 118.45 21.3353 117.863 21.6202L118.735 23.4198C119.556 23.0221 120.27 22.484 120.87 21.8084L119.376 20.4796ZM117.885 21.6096C117.321 21.8662 116.695 22 115.995 22V24C116.959 24 117.869 23.8138 118.713 23.4304L117.885 21.6096ZM115.995 22H105.851V24H115.995V22ZM106.851 23V0.664H104.851V23H106.851ZM108.539 21.632H115.163V19.632H108.539V21.632ZM115.163 21.632C116.479 21.632 117.646 21.3008 118.54 20.5221L117.226 19.0139C116.798 19.3872 116.151 19.632 115.163 19.632V21.632ZM118.553 20.5101C119.478 19.6748 119.875 18.5083 119.875 17.176H117.875C117.875 18.105 117.611 18.6665 117.213 19.0259L118.553 20.5101ZM119.875 17.176V16.088H117.875V17.176H119.875ZM119.875 16.088C119.875 14.7576 119.479 13.5916 118.54 12.7739L117.226 14.2821C117.61 14.6164 117.875 15.1571 117.875 16.088H119.875ZM118.553 12.7859C117.659 11.9786 116.488 11.632 115.163 11.632V13.632C116.142 13.632 116.784 13.8828 117.213 14.2701L118.553 12.7859ZM115.163 11.632H108.539V13.632H115.163V11.632ZM107.539 12.632V20.632H109.539V12.632H107.539ZM108.539 11.328H114.715V9.328H108.539V11.328ZM114.715 11.328C115.944 11.328 117.043 11.0188 117.877 10.2739L116.545 8.78206C116.185 9.10389 115.619 9.328 114.715 9.328V11.328ZM117.877 10.2739C118.738 9.5049 119.107 8.43431 119.107 7.224H117.107C117.107 8.01902 116.878 8.48443 116.545 8.78206L117.877 10.2739ZM119.107 7.224V6.136H117.107V7.224H119.107ZM119.107 6.136C119.107 4.92569 118.738 3.8551 117.877 3.08606L116.545 4.57794C116.878 4.87556 117.107 5.34098 117.107 6.136H119.107ZM117.877 3.08606C117.043 2.34123 115.944 2.032 114.715 2.032V4.032C115.619 4.032 116.185 4.25611 116.545 4.57794L117.877 3.08606ZM114.715 2.032H108.539V4.032H114.715V2.032ZM107.539 3.032V10.328H109.539V3.032H107.539ZM131.173 22.648L130.767 23.5618L130.777 23.5663L130.787 23.5706L131.173 22.648ZM128.197 20.44L127.426 21.0769L127.434 21.086L127.442 21.0949L128.197 20.44ZM126.309 16.824L125.354 17.1191L125.355 17.1231L126.309 16.824ZM126.309 6.872L127.263 7.17109L127.263 7.17109L126.309 6.872ZM128.197 3.256L127.434 2.60926L127.426 2.61912L128.197 3.256ZM131.173 1.048L131.565 1.96806L131.573 1.96454L131.173 1.048ZM139.013 1.048L138.613 1.96454L138.62 1.96761L138.627 1.97058L139.013 1.048ZM141.989 3.256L141.218 3.89293L141.226 3.90268L141.989 3.256ZM143.909 6.872L142.955 7.17109L142.955 7.17109L143.909 6.872ZM143.909 16.824L144.863 17.1231L144.865 17.1191L143.909 16.824ZM141.989 20.44L141.226 19.7933L141.225 19.7948L141.989 20.44ZM139.013 22.648L139.399 23.5706L139.406 23.5676L139.413 23.5645L139.013 22.648ZM137.765 20.472L137.377 19.5504L137.377 19.5504L137.765 20.472ZM139.845 19L139.114 18.3177L139.108 18.3243L139.102 18.331L139.845 19ZM141.221 16.696L140.28 16.3597L140.28 16.3597L141.221 16.696ZM141.221 6.968L142.163 6.63166L142.163 6.63166L141.221 6.968ZM139.845 4.664L139.102 5.33296L139.108 5.3397L139.114 5.34632L139.845 4.664ZM137.765 3.192L137.377 4.11363L137.377 4.11364L137.765 3.192ZM132.453 3.192L132.841 4.11364L132.841 4.11363L132.453 3.192ZM130.341 4.664L129.61 3.98168L129.604 3.9883L129.598 3.99503L130.341 4.664ZM128.997 6.968L128.056 6.63166L128.056 6.63166L128.997 6.968ZM128.997 16.696L129.939 16.3597L129.939 16.3597L128.997 16.696ZM130.341 19L129.598 19.669L129.604 19.6757L129.61 19.6823L130.341 19ZM132.453 20.472L132.841 19.5504L132.841 19.5504L132.453 20.472ZM135.109 22.384C133.773 22.384 132.594 22.1583 131.559 21.7254L130.787 23.5706C132.099 24.119 133.545 24.384 135.109 24.384V22.384ZM131.579 21.7342C130.563 21.2823 129.69 20.6351 128.953 19.7851L127.442 21.0949C128.369 22.1649 129.48 22.9897 130.767 23.5618L131.579 21.7342ZM128.968 19.8031C128.253 18.9375 127.68 17.8523 127.263 16.5249L125.355 17.1231C125.835 18.6544 126.52 19.9799 127.426 21.0769L128.968 19.8031ZM127.265 16.5289C126.852 15.1933 126.637 13.632 126.637 11.832H124.637C124.637 13.7867 124.87 15.5534 125.354 17.1191L127.265 16.5289ZM126.637 11.832C126.637 10.0316 126.852 8.48273 127.263 7.17109L125.355 6.57291C124.87 8.11994 124.637 9.87773 124.637 11.832H126.637ZM127.263 7.17109C127.68 5.84369 128.253 4.75854 128.968 3.89288L127.426 2.61912C126.52 3.71612 125.835 5.04164 125.355 6.57291L127.263 7.17109ZM128.96 3.90268C129.694 3.03671 130.56 2.39598 131.565 1.96802L130.781 0.127974C129.482 0.681355 128.364 1.51262 127.434 2.60931L128.96 3.90268ZM131.573 1.96454C132.605 1.51446 133.778 1.28 135.109 1.28V-0.720001C133.539 -0.720001 132.089 -0.442463 130.773 0.131459L131.573 1.96454ZM135.109 1.28C136.417 1.28 137.58 1.51367 138.613 1.96454L139.413 0.131459C138.1 -0.441673 136.66 -0.720001 135.109 -0.720001V1.28ZM138.627 1.97058C139.651 2.39861 140.511 3.0365 141.218 3.89288L142.76 2.61912C141.846 1.51283 140.722 0.678724 139.399 0.125419L138.627 1.97058ZM141.226 3.90268C141.959 4.76677 142.54 5.84854 142.955 7.17109L144.863 6.57291C144.382 5.03679 143.683 3.7079 142.752 2.60931L141.226 3.90268ZM142.955 7.17109C143.366 8.48273 143.581 10.0316 143.581 11.832H145.581C145.581 9.87773 145.348 8.11994 144.863 6.57291L142.955 7.17109ZM143.581 11.832C143.581 13.632 143.366 15.1933 142.954 16.5289L144.865 17.1191C145.348 15.5534 145.581 13.7867 145.581 11.832H143.581ZM142.955 16.5249C142.54 17.8475 141.959 18.9292 141.226 19.7933L142.752 21.0867C143.683 19.9881 144.382 18.6592 144.863 17.1231L142.955 16.5249ZM141.225 19.7948C140.515 20.6354 139.649 21.2796 138.613 21.7315L139.413 23.5645C140.724 22.9924 141.842 22.1646 142.753 21.0852L141.225 19.7948ZM138.627 21.7254C137.591 22.159 136.423 22.384 135.109 22.384V24.384C136.655 24.384 138.089 24.1183 139.399 23.5706L138.627 21.7254ZM135.109 21.984C136.19 21.984 137.209 21.7912 138.153 21.3936L137.377 19.5504C136.7 19.8354 135.948 19.984 135.109 19.984V21.984ZM138.153 21.3936C139.097 20.9965 139.912 20.4207 140.589 19.669L139.102 18.331C138.627 18.8593 138.055 19.2648 137.377 19.5504L138.153 21.3936ZM140.576 19.6823C141.275 18.9342 141.801 18.0456 142.163 17.0323L140.28 16.3597C140.001 17.1384 139.611 17.7858 139.114 18.3177L140.576 19.6823ZM142.163 17.0323C142.527 16.0121 142.701 14.8933 142.701 13.688H140.701C140.701 14.7014 140.555 15.5879 140.28 16.3597L142.163 17.0323ZM142.701 13.688V9.976H140.701V13.688H142.701ZM142.701 9.976C142.701 8.77069 142.527 7.65187 142.163 6.63166L140.28 7.30433C140.555 8.07613 140.701 8.96264 140.701 9.976H142.701ZM142.163 6.63166C141.801 5.61843 141.275 4.72981 140.576 3.98168L139.114 5.34632C139.611 5.87819 140.001 6.52557 140.28 7.30433L142.163 6.63166ZM140.589 3.99504C139.912 3.24331 139.097 2.6675 138.153 2.27036L137.377 4.11364C138.055 4.39916 138.627 4.80469 139.102 5.33296L140.589 3.99504ZM138.153 2.27036C137.209 1.87275 136.19 1.68 135.109 1.68V3.68C135.948 3.68 136.7 3.82858 137.377 4.11363L138.153 2.27036ZM135.109 1.68C134.028 1.68 133.01 1.87275 132.065 2.27036L132.841 4.11363C133.518 3.82858 134.27 3.68 135.109 3.68V1.68ZM132.065 2.27036C131.125 2.66613 130.304 3.23812 129.61 3.98168L131.072 5.34632C131.573 4.80988 132.16 4.40053 132.841 4.11364L132.065 2.27036ZM129.598 3.99503C128.926 4.74161 128.415 5.62583 128.056 6.63166L129.939 7.30433C130.22 6.51817 130.604 5.86638 131.085 5.33296L129.598 3.99503ZM128.056 6.63166C127.691 7.65187 127.517 8.77069 127.517 9.976H129.517C129.517 8.96264 129.663 8.07613 129.939 7.30433L128.056 6.63166ZM127.517 9.976V13.688H129.517V9.976H127.517ZM127.517 13.688C127.517 14.8933 127.691 16.0121 128.056 17.0323L129.939 16.3597C129.663 15.5879 129.517 14.7014 129.517 13.688H127.517ZM128.056 17.0323C128.415 18.0382 128.926 18.9224 129.598 19.669L131.085 18.331C130.604 17.7976 130.22 17.1458 129.939 16.3597L128.056 17.0323ZM129.61 19.6823C130.304 20.4259 131.125 20.9979 132.065 21.3936L132.841 19.5504C132.16 19.2635 131.573 18.8541 131.072 18.3177L129.61 19.6823ZM132.065 21.3936C133.01 21.7912 134.028 21.984 135.109 21.984V19.984C134.27 19.984 133.518 19.8354 132.841 19.5504L132.065 21.3936ZM153.83 22.648L153.423 23.5618L153.433 23.5663L153.444 23.5706L153.83 22.648ZM150.854 20.44L150.083 21.0769L150.09 21.086L150.098 21.0949L150.854 20.44ZM148.966 16.824L148.01 17.1191L148.011 17.1231L148.966 16.824ZM148.966 6.872L149.92 7.17109L149.92 7.17109L148.966 6.872ZM150.854 3.256L150.091 2.60926L150.083 2.61912L150.854 3.256ZM153.83 1.048L154.221 1.96806L154.229 1.96454L153.83 1.048ZM161.67 1.048L161.27 1.96454L161.277 1.96761L161.284 1.97058L161.67 1.048ZM164.646 3.256L163.874 3.89293L163.883 3.90268L164.646 3.256ZM166.566 6.872L165.611 7.17109L165.611 7.17109L166.566 6.872ZM166.566 16.824L167.52 17.1231L167.521 17.1191L166.566 16.824ZM164.646 20.44L163.883 19.7933L163.881 19.7948L164.646 20.44ZM161.67 22.648L162.055 23.5706L162.062 23.5676L162.069 23.5645L161.67 22.648ZM160.422 20.472L160.033 19.5504L160.033 19.5504L160.422 20.472ZM162.502 19L161.77 18.3177L161.764 18.3243L161.758 18.331L162.502 19ZM163.878 16.696L162.936 16.3597L162.936 16.3597L163.878 16.696ZM163.878 6.968L164.819 6.63166L164.819 6.63166L163.878 6.968ZM162.502 4.664L161.758 5.33296L161.764 5.3397L161.77 5.34632L162.502 4.664ZM160.422 3.192L160.033 4.11363L160.033 4.11364L160.422 3.192ZM155.11 3.192L155.498 4.11364L155.498 4.11363L155.11 3.192ZM152.998 4.664L152.266 3.98168L152.26 3.9883L152.254 3.99503L152.998 4.664ZM151.654 6.968L150.712 6.63166L150.712 6.63166L151.654 6.968ZM151.654 16.696L152.595 16.3597L152.595 16.3597L151.654 16.696ZM152.998 19L152.254 19.669L152.26 19.6757L152.266 19.6823L152.998 19ZM155.11 20.472L155.498 19.5504L155.498 19.5504L155.11 20.472ZM157.766 22.384C156.429 22.384 155.25 22.1583 154.215 21.7254L153.444 23.5706C154.755 24.119 156.201 24.384 157.766 24.384V22.384ZM154.236 21.7342C153.219 21.2823 152.346 20.6351 151.609 19.7851L150.098 21.0949C151.025 22.1649 152.136 22.9897 153.423 23.5618L154.236 21.7342ZM151.624 19.8031C150.909 18.9375 150.336 17.8523 149.92 16.5249L148.011 17.1231C148.491 18.6544 149.176 19.9799 150.083 21.0769L151.624 19.8031ZM149.921 16.5289C149.509 15.1933 149.294 13.632 149.294 11.832H147.294C147.294 13.7867 147.526 15.5534 148.01 17.1191L149.921 16.5289ZM149.294 11.832C149.294 10.0316 149.509 8.48273 149.92 7.17109L148.011 6.57291C147.526 8.11994 147.294 9.87773 147.294 11.832H149.294ZM149.92 7.17109C150.336 5.84369 150.909 4.75854 151.624 3.89288L150.083 2.61912C149.176 3.71612 148.491 5.04164 148.011 6.57291L149.92 7.17109ZM151.616 3.90268C152.35 3.03671 153.217 2.39598 154.221 1.96802L153.438 0.127974C152.138 0.681355 151.021 1.51262 150.091 2.60931L151.616 3.90268ZM154.229 1.96454C155.261 1.51446 156.434 1.28 157.766 1.28V-0.720001C156.195 -0.720001 154.745 -0.442463 153.43 0.131459L154.229 1.96454ZM157.766 1.28C159.073 1.28 160.236 1.51367 161.27 1.96454L162.069 0.131459C160.756 -0.441673 159.316 -0.720001 157.766 -0.720001V1.28ZM161.284 1.97058C162.307 2.39861 163.167 3.0365 163.875 3.89288L165.416 2.61912C164.503 1.51283 163.378 0.678724 162.055 0.125419L161.284 1.97058ZM163.883 3.90268C164.615 4.76677 165.197 5.84854 165.611 7.17109L167.52 6.57291C167.038 5.03679 166.34 3.7079 165.408 2.60931L163.883 3.90268ZM165.611 7.17109C166.022 8.48273 166.238 10.0316 166.238 11.832H168.238C168.238 9.87773 168.005 8.11994 167.52 6.57291L165.611 7.17109ZM166.238 11.832C166.238 13.632 166.022 15.1933 165.61 16.5289L167.521 17.1191C168.005 15.5534 168.238 13.7867 168.238 11.832H166.238ZM165.611 16.5249C165.197 17.8475 164.615 18.9292 163.883 19.7933L165.408 21.0867C166.34 19.9881 167.038 18.6592 167.52 17.1231L165.611 16.5249ZM163.881 19.7948C163.172 20.6354 162.305 21.2796 161.27 21.7315L162.069 23.5645C163.381 22.9924 164.498 22.1646 165.41 21.0852L163.881 19.7948ZM161.284 21.7254C160.247 22.159 159.079 22.384 157.766 22.384V24.384C159.311 24.384 160.746 24.1183 162.055 23.5706L161.284 21.7254ZM157.766 21.984C158.847 21.984 159.865 21.7912 160.81 21.3936L160.033 19.5504C159.356 19.8354 158.604 19.984 157.766 19.984V21.984ZM160.81 21.3936C161.753 20.9965 162.568 20.4207 163.245 19.669L161.758 18.331C161.283 18.8593 160.712 19.2648 160.033 19.5504L160.81 21.3936ZM163.233 19.6823C163.931 18.9342 164.457 18.0456 164.819 17.0323L162.936 16.3597C162.658 17.1384 162.267 17.7858 161.77 18.3177L163.233 19.6823ZM164.819 17.0323C165.184 16.0121 165.358 14.8933 165.358 13.688H163.358C163.358 14.7014 163.211 15.5879 162.936 16.3597L164.819 17.0323ZM165.358 13.688V9.976H163.358V13.688H165.358ZM165.358 9.976C165.358 8.77069 165.184 7.65187 164.819 6.63166L162.936 7.30433C163.211 8.07613 163.358 8.96264 163.358 9.976H165.358ZM164.819 6.63166C164.457 5.61843 163.931 4.72981 163.233 3.98168L161.77 5.34632C162.267 5.87819 162.658 6.52557 162.936 7.30433L164.819 6.63166ZM163.245 3.99504C162.568 3.24331 161.753 2.6675 160.81 2.27036L160.033 4.11364C160.712 4.39916 161.283 4.80469 161.758 5.33296L163.245 3.99504ZM160.81 2.27036C159.865 1.87275 158.847 1.68 157.766 1.68V3.68C158.604 3.68 159.356 3.82858 160.033 4.11363L160.81 2.27036ZM157.766 1.68C156.684 1.68 155.666 1.87275 154.721 2.27036L155.498 4.11363C156.175 3.82858 156.927 3.68 157.766 3.68V1.68ZM154.721 2.27036C153.781 2.66613 152.96 3.23812 152.266 3.98168L153.729 5.34632C154.229 4.80988 154.816 4.40053 155.498 4.11364L154.721 2.27036ZM152.254 3.99503C151.582 4.74161 151.071 5.62583 150.712 6.63166L152.595 7.30433C152.876 6.51817 153.261 5.86638 153.741 5.33296L152.254 3.99503ZM150.712 6.63166C150.347 7.65187 150.174 8.77069 150.174 9.976H152.174C152.174 8.96264 152.32 8.07613 152.595 7.30433L150.712 6.63166ZM150.174 9.976V13.688H152.174V9.976H150.174ZM150.174 13.688C150.174 14.8933 150.347 16.0121 150.712 17.0323L152.595 16.3597C152.32 15.5879 152.174 14.7014 152.174 13.688H150.174ZM150.712 17.0323C151.071 18.0382 151.582 18.9224 152.254 19.669L153.741 18.331C153.261 17.7976 152.876 17.1458 152.595 16.3597L150.712 17.0323ZM152.266 19.6823C152.96 20.4259 153.781 20.9979 154.721 21.3936L155.498 19.5504C154.816 19.2635 154.229 18.8541 153.729 18.3177L152.266 19.6823ZM154.721 21.3936C155.666 21.7912 156.684 21.984 157.766 21.984V19.984C156.927 19.984 156.175 19.8354 155.498 19.5504L154.721 21.3936ZM177.926 12.024L178.754 11.4637L178.038 10.4047L177.182 11.355L177.926 12.024ZM174.758 15.544L174.014 14.875L173.758 15.1603V15.544H174.758ZM174.758 23V24H175.758V23H174.758ZM172.07 23H171.07V24H172.07V23ZM172.07 0.664V-0.336H171.07V0.664H172.07ZM174.758 0.664H175.758V-0.336H174.758V0.664ZM174.758 12.536H173.758V13.536H174.758V12.536ZM174.854 12.536V13.536H175.325L175.625 13.173L174.854 12.536ZM178.054 8.664L177.29 8.01898L177.283 8.02695L178.054 8.664ZM184.806 0.664V-0.336H184.341L184.042 0.019017L184.806 0.664ZM188.102 0.664L188.856 1.32018L190.297 -0.336H188.102V0.664ZM179.782 10.232L179.027 9.57582L178.516 10.1641L178.961 10.8037L179.782 10.232ZM188.678 23V24H190.593L189.498 22.4283L188.678 23ZM185.35 23L184.521 23.5603L184.819 24H185.35V23ZM177.182 11.355L174.014 14.875L175.501 16.213L178.669 12.693L177.182 11.355ZM173.758 15.544V23H175.758V15.544H173.758ZM174.758 22H172.07V24H174.758V22ZM173.07 23V0.664H171.07V23H173.07ZM172.07 1.664H174.758V-0.336H172.07V1.664ZM173.758 0.664V12.536H175.758V0.664H173.758ZM174.758 13.536H174.854V11.536H174.758V13.536ZM175.625 13.173L178.825 9.30105L177.283 8.02695L174.083 11.899L175.625 13.173ZM178.818 9.30898L185.57 1.30898L184.042 0.019017L177.29 8.01902L178.818 9.30898ZM184.806 1.664H188.102V-0.336H184.806V1.664ZM187.347 0.00782081L179.027 9.57582L180.536 10.8882L188.856 1.32018L187.347 0.00782081ZM178.961 10.8037L187.857 23.5717L189.498 22.4283L180.602 9.66033L178.961 10.8037ZM188.678 22H185.35V24H188.678V22ZM186.178 22.4397L178.754 11.4637L177.097 12.5843L184.521 23.5603L186.178 22.4397ZM193.827 22.36L193.345 23.2363L193.356 23.2424L193.827 22.36ZM190.563 19.48L189.92 18.7138L189.201 19.3172L189.758 20.0732L190.563 19.48ZM192.547 17.816L193.345 17.2134L192.711 16.3735L191.904 17.0498L192.547 17.816ZM195.171 20.216L194.67 21.0819L194.678 21.0861L194.685 21.0902L195.171 20.216ZM202.211 19.864L201.542 19.1206L201.532 19.1292L202.211 19.864ZM202.531 14.328L203.2 13.5847L203.2 13.5847L202.531 14.328ZM199.363 12.952L199.589 11.9778L199.585 11.977L199.363 12.952ZM197.539 12.536L197.315 13.5107L197.316 13.511L197.539 12.536ZM192.835 10.424L192.166 11.1673L192.174 11.1743L192.182 11.1812L192.835 10.424ZM191.779 3.768L192.683 4.19501L192.683 4.19501L191.779 3.768ZM193.283 1.848L192.671 1.05728L192.664 1.06215L192.658 1.06713L193.283 1.848ZM195.619 0.695999L195.893 1.65752L195.901 1.65542L195.908 1.65321L195.619 0.695999ZM202.947 1.208L202.487 2.09602L202.493 2.09928L202.947 1.208ZM206.019 3.928L206.608 4.73563L207.398 4.15897L206.839 3.35651L206.019 3.928ZM204.003 5.4L203.193 5.98697L203.782 6.79931L204.592 6.20763L204.003 5.4ZM195.107 3.576L195.7 4.38106L195.703 4.37846L195.107 3.576ZM194.915 8.728L194.284 9.50411L194.297 9.51483L194.311 9.52509L194.915 8.728ZM198.083 10.008L198.305 9.03303L198.304 9.03287L198.083 10.008ZM199.907 10.424L199.684 11.399L199.689 11.4L199.907 10.424ZM204.675 12.664L203.96 13.3635L203.96 13.3635L204.675 12.664ZM205.603 19.448L204.686 19.0484L204.682 19.0584L204.678 19.0684L205.603 19.448ZM204.099 21.56L204.756 22.3141L204.756 22.3141L204.099 21.56ZM201.667 22.904L201.351 21.9553L201.344 21.9575L201.667 22.904ZM198.467 22.384C196.777 22.384 195.401 22.0661 194.297 21.4776L193.356 23.2424C194.813 24.0192 196.53 24.384 198.467 24.384V22.384ZM194.309 21.4838C193.16 20.852 192.181 19.9902 191.368 18.8868L189.758 20.0732C190.737 21.4018 191.934 22.46 193.345 23.2362L194.309 21.4838ZM191.205 20.2462L193.189 18.5822L191.904 17.0498L189.92 18.7138L191.205 20.2462ZM191.749 18.4186C192.604 19.5517 193.576 20.4493 194.67 21.0819L195.671 19.3501C194.846 18.8734 194.068 18.171 193.345 17.2134L191.749 18.4186ZM194.685 21.0902C195.819 21.7201 197.123 22.016 198.563 22.016V20.016C197.4 20.016 196.443 19.7786 195.656 19.3418L194.685 21.0902ZM198.563 22.016C200.31 22.016 201.808 21.5966 202.889 20.5988L201.532 19.1292C200.949 19.6674 200.015 20.016 198.563 20.016V22.016ZM202.88 20.6073C203.969 19.6267 204.491 18.3192 204.491 16.792H202.491C202.491 17.8248 202.159 18.5653 201.542 19.1207L202.88 20.6073ZM204.491 16.792C204.491 15.5148 204.099 14.3942 203.2 13.5847L201.862 15.0713C202.242 15.4138 202.491 15.9359 202.491 16.792H204.491ZM203.2 13.5847C202.372 12.8394 201.118 12.3325 199.589 11.9778L199.137 13.9262C200.552 14.2542 201.41 14.6646 201.862 15.0713L203.2 13.5847ZM199.585 11.977L197.761 11.561L197.316 13.511L199.14 13.927L199.585 11.977ZM197.762 11.5613C195.805 11.1127 194.409 10.4612 193.488 9.66684L192.182 11.1812C193.437 12.2641 195.177 13.0206 197.315 13.5107L197.762 11.5613ZM193.504 9.68071C192.69 8.94873 192.235 7.89945 192.235 6.392H190.235C190.235 8.34055 190.846 9.97927 192.166 11.1673L193.504 9.68071ZM192.235 6.392C192.235 5.53544 192.392 4.81023 192.683 4.19501L190.875 3.34099C190.44 4.26177 190.235 5.2859 190.235 6.392H192.235ZM192.683 4.19501C192.983 3.55956 193.391 3.04225 193.907 2.62887L192.658 1.06713C191.895 1.67775 191.3 2.44044 190.875 3.34099L192.683 4.19501ZM193.895 2.63872C194.445 2.21301 195.106 1.88256 195.893 1.65752L195.344 -0.265525C194.34 0.0214402 193.443 0.458984 192.671 1.05728L193.895 2.63872ZM195.908 1.65321C196.72 1.40779 197.624 1.28 198.627 1.28V-0.720001C197.454 -0.720001 196.352 -0.570456 195.329 -0.261212L195.908 1.65321ZM198.627 1.28C200.192 1.28 201.466 1.56719 202.487 2.09599L203.407 0.320004C202.038 -0.388527 200.433 -0.720001 198.627 -0.720001V1.28ZM202.493 2.09928C203.553 2.63823 204.454 3.43071 205.198 4.49949L206.839 3.35651C205.92 2.03596 204.773 1.0151 203.4 0.31672L202.493 2.09928ZM205.429 3.12037L203.413 4.59237L204.592 6.20763L206.608 4.73563L205.429 3.12037ZM204.812 4.81303C204.113 3.84869 203.259 3.07689 202.252 2.51186L201.273 4.25614C202.016 4.67244 202.655 5.24464 203.193 5.98697L204.812 4.81303ZM202.252 2.51186C201.19 1.91603 199.922 1.648 198.499 1.648V3.648C199.678 3.648 200.586 3.87064 201.273 4.25614L202.252 2.51186ZM198.499 1.648C196.934 1.648 195.569 1.98601 194.51 2.77354L195.703 4.37846C196.308 3.92865 197.205 3.648 198.499 3.648V1.648ZM194.514 2.77094C193.393 3.59684 192.891 4.83649 192.891 6.296H194.891C194.891 5.32351 195.199 4.74982 195.7 4.38105L194.514 2.77094ZM192.891 6.296C192.891 7.59307 193.318 8.71904 194.284 9.50411L195.545 7.95189C195.146 7.62762 194.891 7.13226 194.891 6.296H192.891ZM194.311 9.52509C195.178 10.1819 196.392 10.6492 197.861 10.9831L198.304 9.03287C196.958 8.72679 196.06 8.3408 195.519 7.93091L194.311 9.52509ZM197.86 10.983L199.684 11.399L200.129 9.44904L198.305 9.03303L197.86 10.983ZM199.689 11.4C201.801 11.8717 203.173 12.5594 203.96 13.3635L205.389 11.9645C204.214 10.7632 202.407 9.95764 200.125 9.44804L199.689 11.4ZM203.96 13.3635C204.725 14.1451 205.147 15.2094 205.147 16.664H207.147C207.147 14.7906 206.587 13.1883 205.389 11.9645L203.96 13.3635ZM205.147 16.664C205.147 17.5681 204.987 18.3577 204.686 19.0484L206.519 19.8476C206.944 18.8743 207.147 17.8079 207.147 16.664H205.147ZM204.678 19.0684C204.394 19.7602 203.983 20.3348 203.442 20.8059L204.756 22.3141C205.537 21.6332 206.129 20.7998 206.528 19.8276L204.678 19.0684ZM203.442 20.8059C202.894 21.2829 202.204 21.6707 201.351 21.9553L201.983 23.8527C203.049 23.4973 203.981 22.9891 204.756 22.3141L203.442 20.8059ZM201.344 21.9575C200.528 22.2357 199.573 22.384 198.467 22.384V24.384C199.749 24.384 200.928 24.2123 201.989 23.8505L201.344 21.9575Z" fill="#D2CAF3"/>
<defs>
<filter id="filter0_i_1_14" x="0.976013" y="0.279999" width="205.171" height="27.104" filterUnits="userSpaceOnUse" color-interpolation-filters="sRGB">
<feFlood flood-opacity="0" result="BackgroundImageFix"/>
<feBlend mode="normal" in="SourceGraphic" in2="BackgroundImageFix" result="shape"/>
<feColorMatrix in="SourceAlpha" type="matrix" values="0 0 0 0 0 0 0 0 0 0 0 0 0 0 0 0 0 0 127 0" result="hardAlpha"/>
<feOffset dy="4"/>
<feGaussianBlur stdDeviation="2"/>
<feComposite in2="hardAlpha" operator="arithmetic" k2="-1" k3="1"/>
<feColorMatrix type="matrix" values="0 0 0 0 0 0 0 0 0 0 0 0 0 0 0 0 0 0 0.25 0"/>
<feBlend mode="normal" in2="shape" result="effect1_innerShadow_1_14"/>
</filter>
</defs>
</svg>
