<svg xmlns="http://www.w3.org/2000/svg" viewBox="0 0 100 100"><path d="m91.7 23.9-5-8c-.4-.6-1-.9-1.7-.9s-1.3.4-1.7.9l-5 8c-.2.4-.3.7-.3 1.1v53c0 3.9 3.1 7 7 7s7-3.1 7-7V25c0-.4-.1-.7-.3-1.1zM85 20.8l3 4.8V71h-6V25.6l3-4.8zM85 81c-1.7 0-3-1.3-3-3v-3h6v3c0 1.7-1.3 3-3 3zM66 5H14c-3.3 0-6 2.7-6 6v78c0 3.3 2.7 6 6 6h52c3.3 0 6-2.7 6-6V11c0-3.3-2.7-6-6-6zm2 84c0 1.1-.9 2-2 2H14c-1.1 0-2-.9-2-2V11c0-1.1.9-2 2-2h52c1.1 0 2 .9 2 2v78zM28 19c0-1.1.9-2 2-2h20c1.1 0 2 .9 2 2s-.9 2-2 2H30c-1.1 0-2-.9-2-2zm32 10c0 1.1-.9 2-2 2H22c-1.1 0-2-.9-2-2s.9-2 2-2h36c1.1 0 2 .9 2 2zm0 10c0 1.1-.9 2-2 2H22c-1.1 0-2-.9-2-2s.9-2 2-2h36c1.1 0 2 .9 2 2zm0 10c0 1.1-.9 2-2 2H22c-1.1 0-2-.9-2-2s.9-2 2-2h36c1.1 0 2 .9 2 2zm0 22c0 1.1-.9 2-2 2H22c-1.1 0-2-.9-2-2s.9-2 2-2h36c1.1 0 2 .9 2 2zm0 10c0 1.1-.9 2-2 2H22c-1.1 0-2-.9-2-2s.9-2 2-2h36c1.1 0 2 .9 2 2z"/></svg>