<?xml version="1.0" encoding="iso-8859-1"?>
<!-- Generator: Adobe Illustrator 19.0.0, SVG Export Plug-In . SVG Version: 6.00 Build 0)  -->
<svg version="1.1" id="Layer_1" xmlns="http://www.w3.org/2000/svg" xmlns:xlink="http://www.w3.org/1999/xlink" x="0px" y="0px"
	 viewBox="0 0 512 512" style="enable-background:new 0 0 512 512;" xml:space="preserve">
<rect x="7.778" y="107.865" style="fill:#95C11F;" width="496.447" height="320.29"/>
<polyline style="fill:#AACD4C;" points="7.778,428.154 7.778,107.868 504.222,107.868 "/>
<rect x="39.803" y="83.847" style="fill:#FFFFFF;" width="432.387" height="312.284"/>
<rect x="87.85" y="292.029" style="fill:#889EBD;" width="120.103" height="56.054"/>
<rect x="304.039" y="131.884" style="fill:#6A86AC;" width="120.103" height="56.054"/>
<g>
	<rect x="248.224" y="107.865" style="fill:#1D1D1B;" width="15.556" height="264.236"/>
	<path style="fill:#1D1D1B;" d="M479.972,100.09V76.068H272.014c-6.161,0-11.783,2.355-16.013,6.211
		c-4.23-3.857-9.853-6.211-16.014-6.211H32.029v24.022H0v335.843h512V100.09H479.972z M47.585,91.624h192.4
		c4.542,0,8.236,3.695,8.236,8.236h15.556c0-4.542,3.695-8.236,8.235-8.236h192.401v296.723H263.779v-8.235h-15.556v8.235H47.585
		V91.624z M496.444,420.376H263.779v-8.236h-15.556v8.236H15.556V115.646h16.473v288.258h447.943V115.646h16.473v304.731H496.444z"
		/>
	<rect x="79.842" y="124.106" style="fill:#1D1D1B;" width="64.058" height="15.556"/>
</g>
<rect x="79.842" y="156.141" style="fill:#AACD4C;" width="24.019" height="15.556"/>
<g>
	<rect x="119.875" y="156.141" style="fill:#1D1D1B;" width="96.085" height="15.556"/>
	<rect x="79.842" y="188.166" style="fill:#1D1D1B;" width="56.054" height="15.556"/>
</g>
<rect x="151.911" y="188.166" style="fill:#AACD4C;" width="64.058" height="15.556"/>
<g>
	<rect x="79.842" y="220.191" style="fill:#1D1D1B;" width="136.126" height="15.556"/>
	<rect x="79.842" y="252.226" style="fill:#1D1D1B;" width="96.085" height="15.556"/>
	<rect x="191.942" y="252.226" style="fill:#1D1D1B;" width="24.019" height="15.556"/>
	<path style="fill:#1D1D1B;" d="M215.735,355.861H80.071v-71.607h135.664V355.861z M95.627,340.305h104.552V299.81H95.627V340.305z"
		/>
	<path style="fill:#1D1D1B;" d="M431.929,195.717H296.265v-71.606h135.664V195.717z M311.821,180.161h104.552v-40.494H311.821
		V180.161z"/>
	<rect x="296.033" y="212.185" style="fill:#1D1D1B;" width="136.126" height="15.556"/>
</g>
<rect x="296.033" y="244.22" style="fill:#AACD4C;" width="16.013" height="15.556"/>
<rect x="328.068" y="244.22" style="fill:#1D1D1B;" width="104.091" height="15.556"/>
<rect x="296.033" y="276.245" style="fill:#AACD4C;" width="16.013" height="15.556"/>
<rect x="328.068" y="276.245" style="fill:#1D1D1B;" width="104.091" height="15.556"/>
<rect x="296.033" y="308.28" style="fill:#AACD4C;" width="16.013" height="15.556"/>
<rect x="328.068" y="308.28" style="fill:#1D1D1B;" width="104.091" height="15.556"/>
<rect x="296.033" y="340.305" style="fill:#AACD4C;" width="16.013" height="15.556"/>
<rect x="328.068" y="340.305" style="fill:#1D1D1B;" width="104.091" height="15.556"/>
<g>
</g>
<g>
</g>
<g>
</g>
<g>
</g>
<g>
</g>
<g>
</g>
<g>
</g>
<g>
</g>
<g>
</g>
<g>
</g>
<g>
</g>
<g>
</g>
<g>
</g>
<g>
</g>
<g>
</g>
</svg>
