<svg width="516" height="236" viewBox="0 0 516 236" fill="none" xmlns="http://www.w3.org/2000/svg">
<g opacity="0.8" filter="url(#filter0_f_746_1661)">
<path fill-rule="evenodd" clip-rule="evenodd" d="M43.1797 -46.7765C39.5267 -15.1312 42.908 16.9296 53.0823 47.117C63.2566 77.3044 79.973 104.874 102.038 127.857C124.103 150.841 150.973 168.671 180.729 180.075C210.484 191.48 242.393 196.177 274.175 193.832C305.958 191.487 336.831 182.157 364.591 166.509C392.351 150.861 416.313 129.28 434.766 103.307C453.219 77.3338 465.708 47.6094 471.342 16.2556C476.976 -15.0982 475.615 -47.3081 467.357 -78.0746L425.536 -66.8567C432.142 -42.2435 433.231 -16.4756 428.724 8.60742C424.217 33.6904 414.226 57.47 399.463 78.2484C384.701 99.0268 365.531 116.292 343.323 128.81C321.115 141.329 296.417 148.793 270.991 150.669C245.565 152.545 220.038 148.787 196.233 139.663C172.429 130.54 150.933 116.275 133.281 97.8887C115.629 79.502 102.256 57.4465 94.1163 33.2965C85.9768 9.14663 83.2718 -16.502 86.1942 -41.8183L43.1797 -46.7765ZM114.257 -38.584C111.811 -17.3969 114.075 4.0683 120.887 24.2793C127.699 44.4902 138.891 62.9484 153.664 78.3361C168.437 93.7239 186.426 105.662 206.348 113.297C226.27 120.933 247.633 124.078 268.912 122.508C290.191 120.937 310.862 114.691 329.447 104.214C348.033 93.7374 364.076 79.2886 376.43 61.8992C388.785 44.5099 397.147 24.6089 400.919 3.61704C404.69 -17.3748 403.78 -38.9399 398.251 -59.5386L359.051 -49.0238C363.032 -34.1928 363.688 -18.6659 360.972 -3.55178C358.256 11.5624 352.236 25.8911 343.34 38.4114C334.445 50.9317 322.894 61.3349 309.512 68.8782C296.131 76.4215 281.248 80.9189 265.927 82.0494C250.606 83.1798 235.225 80.9155 220.881 75.4179C206.537 69.9203 193.585 61.3251 182.948 50.246C172.312 39.1668 164.254 25.8769 159.349 11.325C154.445 -3.22687 152.815 -18.6818 154.576 -33.9365L114.257 -38.584ZM185.358 2.56546C181.743 -8.15966 180.542 -19.5504 181.84 -30.7935L215.461 -26.918C214.734 -20.6218 215.407 -14.2431 217.431 -8.23699C219.456 -2.23092 222.782 3.25428 227.172 7.82704C231.562 12.3998 236.908 15.9473 242.828 18.2163C248.748 20.4854 255.096 21.42 261.42 20.9534C267.743 20.4868 273.886 18.6306 279.409 15.5172C284.932 12.4038 289.7 8.11006 293.371 2.9425C297.042 -2.22508 299.527 -8.13903 300.648 -14.3771C301.769 -20.6153 301.498 -27.0237 299.855 -33.145L332.544 -41.9132C335.478 -30.9823 335.961 -19.5386 333.959 -8.39912C331.958 2.7404 327.521 13.301 320.964 22.5288C314.408 31.7566 305.895 39.424 296.032 44.9836C286.17 50.5432 275.201 53.858 263.909 54.6911C252.617 55.5243 241.281 53.8554 230.709 49.8035C220.137 45.7517 210.591 39.4168 202.751 31.2512C194.912 23.0856 188.973 13.2906 185.358 2.56546Z" fill="#A0B8F6"/>
</g>
<defs>
<filter id="filter0_f_746_1661" x="0.752441" y="-119.075" width="514.999" height="354.494" filterUnits="userSpaceOnUse" color-interpolation-filters="sRGB">
<feFlood flood-opacity="0" result="BackgroundImageFix"/>
<feBlend mode="normal" in="SourceGraphic" in2="BackgroundImageFix" result="shape"/>
<feGaussianBlur stdDeviation="20.5" result="effect1_foregroundBlur_746_1661"/>
</filter>
</defs>
</svg>
